<?xml version="1.0" encoding="UTF-8" standalone="no"?><!DOCTYPE svg PUBLIC "-//W3C//DTD SVG 1.1//EN" "http://www.w3.org/Graphics/SVG/1.1/DTD/svg11.dtd"><svg width="100%" height="100%" viewBox="0 0 100 100" version="1.1" xmlns="http://www.w3.org/2000/svg" xmlns:xlink="http://www.w3.org/1999/xlink" xml:space="preserve" xmlns:serif="http://www.serif.com/" style="fill-rule:evenodd;clip-rule:evenodd;stroke-linejoin:round;stroke-miterlimit:2;"><rect id="Logo-Favicon" serif:id="Logo Favicon" x="-0" y="0" width="100" height="100" style="fill:none;"/><g id="Logo"><g id="Frame"><path d="M32.582,78.248l2.556,0l-0,13.343l-2.556,-0l-0,-13.343Z"/><path d="M6.858,65.863l0,-2.556l23.662,0l0,2.556l-23.662,0Z"/><path d="M87.852,10.586l-80.994,-0l0,54.004l27.001,27.001l53.993,-0l-0,-81.005Z" style="fill:#d60000;"/><path d="M89.13,10.586l-0.055,81.005l0,1.223l-55.216,-0.025l-0.496,-0l-27.359,-27.345l-0.354,-0.354l-0.019,-54.504l0,-1.227l82.221,-0.051l1.278,0l-0,1.278Zm-2.555,1.277l-78.491,-0.049l-0.017,52.276l26.288,26.302c0,0 52.272,-0.024 52.272,-0.024l-0.052,-78.505Z"/></g><g id="Page-Turning-Hand" serif:id="Page Turning Hand"><path id="Hand" d="M73.002,73.372c4.164,-0.128 14.929,0.505 17.835,-3.716c2.446,-3.553 0.535,-13.569 -4.415,-16.633c-3.453,-2.137 -8.108,2.653 -15.124,4.216c-3.831,0.854 -10.578,-0.769 -14.369,-1.121c-6.467,-0.599 -21.93,5.432 -23.673,6.472c-0.913,0.543 -2.807,1.868 -4.833,3.943c-0.624,0.639 -4.361,3.424 -3.671,4.399c0.664,0.938 1.727,0.83 3.633,0.003c0.087,-0.038 -2.683,1.689 -2.946,1.87c-1.159,0.797 -2.252,1.211 -3.454,2.526c-0.769,0.841 -0.143,1.556 -0.143,1.923c0,0.367 -3.169,2.111 -4.507,2.445c-4.307,1.077 -2.449,4.889 2.822,3.864c1.806,-0.352 6.267,-1.661 7.814,-2.623c1.874,-1.163 5.899,-2.885 5.889,-2.552c-0,0 0.369,1.661 0.979,2.167c1.308,1.084 4.947,4.388 6.866,4.341c3.223,-0.08 6.598,-0.961 9.687,-1.802c7.199,-1.96 14.153,-9.491 21.61,-9.722Z" style="fill:#fff;"/><path d="M20.496,76.851c-0.067,-0.302 -0.119,-0.672 -0.074,-0.976c0.063,-0.42 0.24,-0.883 0.674,-1.357c0.502,-0.548 0.987,-0.959 1.465,-1.304c0.565,-0.408 1.119,-0.713 1.683,-1.064c-0.169,-0.148 -0.325,-0.322 -0.469,-0.526c-0.407,-0.575 -0.429,-1.486 0.241,-2.465c0.87,-1.268 3.072,-2.976 3.548,-3.464c0.838,-0.859 1.654,-1.595 2.393,-2.205c1.14,-0.941 2.1,-1.587 2.682,-1.934c1.122,-0.67 7.796,-3.383 14.241,-5.135c3.87,-1.053 7.662,-1.745 10.162,-1.515c2.583,0.238 6.545,1.07 10.013,1.298c1.48,0.098 2.863,0.088 3.977,-0.161c5.109,-1.142 8.966,-3.992 12.02,-4.639c1.478,-0.313 2.805,-0.187 4.023,0.565c2.59,1.599 4.482,4.891 5.409,8.363c1.039,3.891 0.821,7.955 -0.611,10.038c-1.084,1.578 -3.076,2.638 -5.493,3.266c-4.477,1.165 -10.456,0.922 -13.339,1.014c-2.147,0.064 -4.245,0.8 -6.325,1.814c-5.041,2.458 -9.968,6.472 -14.997,7.834c-1.884,0.511 -3.874,1.035 -5.871,1.391c-1.377,0.245 -2.758,0.411 -4.113,0.443c-0.803,0.019 -1.863,-0.361 -2.956,-1.01c-1.814,-1.079 -3.817,-2.866 -4.725,-3.621c-0.266,-0.221 -0.523,-0.559 -0.73,-0.958c-0.114,-0.219 -0.215,-0.458 -0.302,-0.69c-1.27,0.487 -3.26,1.417 -4.405,2.126c-0.698,0.433 -1.937,0.942 -3.292,1.403c-1.817,0.617 -3.845,1.164 -4.935,1.375c-3.705,0.718 -5.989,-0.781 -6.503,-2.186c-0.506,-1.384 0.172,-3.302 3.155,-4.046c0.859,-0.214 2.556,-1.08 3.454,-1.674Zm12.242,2.114c-0.01,-0.039 -0.02,-0.075 -0.028,-0.108c-0.022,-0.085 -0.043,-0.175 -0.043,-0.175l1.13,0.885c0.006,0 0.011,0.001 0.016,0.001l-1.181,-1.217c-0.007,0.216 0.022,0.428 0.106,0.614Zm1.087,0.616c-0.002,0 -0.005,0.001 -0.008,0.002l0.043,0.033l-0.035,-0.035Zm-7.597,-9.194c0.028,-0.003 0.057,-0.008 0.087,-0.012c0.437,-0.072 0.958,-0.264 1.593,-0.54c0.134,-0.058 2.201,1.427 0.831,2.3c-0.693,0.441 -2.416,1.519 -2.619,1.659c-0.728,0.502 -1.43,0.849 -2.149,1.37c-0.359,0.259 -0.722,0.568 -1.097,0.979c-0.032,0.035 -0.059,0.064 -0.07,0.096c-0.048,0.142 0.08,0.249 0.112,0.341c0.089,0.257 0.132,0.487 0.132,0.674c0,0.212 -0.05,0.506 -0.284,0.818c-0.146,0.194 -0.515,0.52 -1.048,0.861c-1.122,0.72 -3.081,1.687 -4.088,1.94c-0.547,0.137 -0.964,0.318 -1.246,0.548c-0.134,0.109 -0.262,0.195 -0.218,0.315c0.074,0.201 0.297,0.34 0.578,0.47c0.728,0.336 1.815,0.429 3.183,0.162c1.02,-0.199 2.914,-0.717 4.612,-1.297c1.145,-0.392 2.2,-0.803 2.789,-1.17c1.493,-0.929 4.288,-2.195 5.547,-2.6c0.571,-0.184 0.993,-0.191 1.163,-0.16c0.716,0.13 0.991,0.552 1.041,1.03l0.547,1.437c0.746,0.617 2.266,1.976 3.776,2.987c0.85,0.569 1.659,1.081 2.274,1.065c1.231,-0.031 2.485,-0.188 3.736,-0.414c1.924,-0.347 3.839,-0.86 5.654,-1.356c4.886,-1.338 9.64,-5.306 14.536,-7.708c2.416,-1.184 4.865,-2.007 7.363,-2.087c2.406,-0.072 7.05,0.125 11.055,-0.546c2.483,-0.415 4.739,-1.096 5.782,-2.607c1.138,-1.649 1.087,-4.881 0.269,-7.967c-0.751,-2.835 -2.189,-5.588 -4.299,-6.897c-1.032,-0.64 -2.202,-0.354 -3.568,0.159c-2.83,1.063 -6.291,3.234 -10.637,4.198c-1.31,0.291 -2.934,0.326 -4.672,0.21c-3.49,-0.234 -7.476,-1.072 -10.076,-1.315c-2.29,-0.213 -5.756,0.469 -9.303,1.43c-6.167,1.67 -12.568,4.224 -13.642,4.864c-0.518,0.308 -1.37,0.885 -2.385,1.72c-0.681,0.562 -1.433,1.238 -2.206,2.028c-0.371,0.38 -2.242,2.219 -3.053,3.015Z"/><path id="Middle-Finger-Upper-Curve" serif:id="Middle Finger Upper Curve" d="M29.11,71.977c-0.567,0.419 -1.368,0.299 -1.787,-0.268c-0.419,-0.567 -0.299,-1.368 0.268,-1.787l3.465,-2.497c0.662,-0.404 1.356,-0.757 2.064,-1.086c2.686,-1.251 5.632,-2.049 7.962,-3.373c0.616,-0.344 1.395,-0.123 1.739,0.492c0.343,0.616 0.123,1.395 -0.493,1.739c-2.13,1.162 -4.751,1.874 -7.232,2.907c-0.955,0.398 -1.881,0.857 -2.748,1.403l-3.238,2.47Z"/><path id="Index-Finger-Upper-Curve" serif:id="Index Finger Upper Curve" d="M22.373,78.559c-0.546,0.446 -1.352,0.366 -1.799,-0.18c-0.446,-0.547 -0.365,-1.352 0.181,-1.799c0.742,-0.597 3.313,-2.195 5.895,-3.474c1.576,-0.78 3.156,-1.442 4.341,-1.708c4.901,-1.133 7.004,-3.341 10.076,-4.099c1.436,-0.354 3.061,-0.44 5.189,-0.023c0.691,0.142 1.136,0.818 0.994,1.509c-0.141,0.691 -0.818,1.137 -1.509,0.995c-1.673,-0.36 -2.958,-0.345 -4.095,-0.078c-3.086,0.725 -5.2,2.944 -10.114,4.057c-1.035,0.242 -2.407,0.846 -3.778,1.544c-2.359,1.203 -4.708,2.697 -5.381,3.256Z"/><path id="Index-Finger-Bottom-Curve" serif:id="Index Finger Bottom Curve" d="M33.903,79.582c-0.677,0.197 -1.386,-0.194 -1.583,-0.872c-0.196,-0.677 0.195,-1.387 0.873,-1.583l5.665,-1.694c1.564,-0.561 2.819,-0.789 3.918,-0.877c2.781,-0.221 4.459,0.728 8.211,-0.616c0.666,-0.231 1.395,0.121 1.626,0.788c0.232,0.666 -0.121,1.395 -0.787,1.626c-4.074,1.375 -5.862,0.364 -8.864,0.592c-0.92,0.07 -1.965,0.294 -3.267,0.779l-5.792,1.857Z"/><path id="Thumb-Upper-Curve" serif:id="Thumb Upper Curve" d="M37.524,78.559c-0.697,0.111 -1.352,-0.364 -1.464,-1.06c-0.111,-0.697 0.364,-1.353 1.061,-1.464c1.312,-0.191 2.275,-0.252 3.03,-0.254c1.336,-0.004 1.969,0.199 2.812,0.163c1.32,-0.07 2.745,-0.247 4.096,-0.557c1.394,-0.32 2.705,-0.781 3.735,-1.361c0.619,-0.338 1.396,-0.11 1.734,0.509c0.338,0.619 0.11,1.396 -0.51,1.734c-1.006,0.53 -2.229,0.957 -3.54,1.289c-1.744,0.442 -3.648,0.722 -5.389,0.808c-0.868,0.053 -1.526,-0.143 -2.902,-0.107c-0.665,0.017 -1.512,0.1 -2.663,0.3Z"/></g><g id="Microphone"><g id="Body"><path id="Handle" d="M55.321,28.322c0,0 9.844,-6.583 16.083,-9.547c2.558,-1.215 9.195,9.997 5.966,11.761" style="fill:#fff;"/><path d="M71.85,19.889c-1.927,0.927 -4.197,2.198 -6.401,3.511c-4.863,2.896 -9.417,5.985 -9.417,5.985c-0.587,0.392 -1.381,0.234 -1.773,-0.352c-0.392,-0.586 -0.235,-1.381 0.352,-1.773c-0,0 4.65,-3.068 9.599,-5.96c2.306,-1.348 4.676,-2.661 6.681,-3.606c0.701,-0.337 1.596,-0.278 2.556,0.294c1.357,0.808 3.014,2.821 4.238,5.051c1.05,1.913 1.772,3.976 1.814,5.516c0.04,1.46 -0.501,2.539 -1.517,3.103c-0.619,0.338 -1.396,0.11 -1.734,-0.509c-0.338,-0.619 -0.11,-1.396 0.509,-1.734c0.397,-0.213 0.261,-0.764 0.168,-1.389c-0.17,-1.146 -0.707,-2.518 -1.401,-3.815c-0.83,-1.551 -1.883,-3.002 -2.862,-3.826c-0.229,-0.192 -0.446,-0.348 -0.656,-0.442c-0.046,-0.021 -0.119,-0.043 -0.156,-0.054Z"/><g id="Connector"><g id="Bottom-Edge" serif:id="Bottom Edge"><path d="M82.474,29.072l-2.192,-0l-2.601,1.424c0,0 -1.685,-7.068 -6.277,-11.721l2.617,-1.287l1.322,-1.645c3.592,3.865 5.917,8.298 7.131,13.229Z" style="fill:#fff;"/><path d="M73.253,16.532l0.464,-0.582l0.942,1.945l-0.93,-1.961l0.668,-0.837l0.946,1.951l0.882,-2.025c1.859,1.985 3.392,4.119 4.627,6.387c1.261,2.313 2.209,4.767 2.863,7.357l0.389,1.583l-1.63,-0l-1.874,-0.01l-2.318,1.255l-1.438,0.787l-0.381,-1.595c0,-0 -0.654,-2.799 -2.286,-5.982c-0.896,-1.746 -2.086,-3.611 -3.63,-5.184l-1.173,-1.189l3.879,-1.9Zm2.129,1.178l-0.37,0.457c-0.171,0.211 -0.36,0.336 -0.527,0.41l0.064,-0.015c0,0 -1.181,0.585 -1.181,0.585c1.21,1.449 2.195,3.03 2.98,4.535c1.011,1.937 1.688,3.745 2.089,4.964l1.237,-0.685l0.284,-0.156l0.853,-0.002c-0.539,-1.817 -1.245,-3.56 -2.13,-5.224c-0.91,-1.707 -2.007,-3.332 -3.299,-4.869Z"/></g></g></g><path id="Head" d="M75.343,15.843c1.333,-4.293 5.553,-7.434 10.547,-7.434c6.063,0 10.985,4.63 10.985,10.332c-0,5.702 -5.125,10.938 -11.188,10.938c-1.231,0 -2.353,-0.133 -3.213,-0.607c-1.135,-5.644 -7.131,-13.229 -7.131,-13.229Z" style="fill:#fff;"/><path d="M74.122,15.464c0.776,-2.471 2.397,-4.604 4.556,-6.088c2.023,-1.389 4.516,-2.212 7.212,-2.204c3.293,0.007 6.279,1.248 8.468,3.253c2.302,2.109 3.728,5.058 3.723,8.316c-0.001,3.214 -1.456,6.298 -3.776,8.556c-2.249,2.188 -5.307,3.596 -8.618,3.604c-0.791,0.001 -1.542,-0.051 -2.221,-0.19c-0.58,-0.12 -1.113,-0.304 -1.585,-0.563c-0.317,-0.175 -0.54,-0.48 -0.612,-0.834c-0.341,-1.676 -1.149,-3.529 -2.083,-5.286c-2.094,-3.941 -4.846,-7.392 -4.846,-7.392c-0.261,-0.331 -0.343,-0.769 -0.218,-1.172Zm2.652,0.151c0.881,1.181 2.949,4.068 4.615,7.252c0.922,1.763 1.72,3.616 2.148,5.331c0.217,0.072 0.449,0.123 0.692,0.161c0.456,0.073 0.946,0.098 1.458,0.099c2.665,0.006 5.129,-1.128 6.942,-2.886c1.859,-1.802 3.041,-4.262 3.04,-6.831c-0.004,-2.558 -1.141,-4.866 -2.955,-6.515c-1.766,-1.605 -4.176,-2.585 -6.824,-2.58c-2.165,0.007 -4.164,0.674 -5.782,1.799c-1.504,1.046 -2.677,2.492 -3.334,4.17Z"/></g><g id="Mic-Holding-Hand" serif:id="Mic Holding Hand"><path id="Hand1" serif:id="Hand" d="M67.049,30.045c1.462,0.092 2.937,0.11 4.432,0.023c0.529,-0.031 1.059,-0.056 1.588,-0.074c0.441,-0.014 0.881,-0.025 1.322,-0.033c0.377,-0.007 0.755,-0.017 1.133,-0.017c2.508,0.003 3.819,2.883 3.097,3.461c-2.046,1.639 -6.518,1.692 -6.683,1.752c-1.635,-0.001 -4.889,2.724 -4.889,2.724c-1.042,0.548 -2.102,1.058 -3.197,1.496c-0.941,0.375 -2.027,0.568 -2.938,1.017c-0.042,0.021 -0.083,0.042 -0.124,0.064c-1.054,0.558 -1.82,1.527 -2.853,2.112c-1.358,0.77 -2.909,1.152 -4.352,1.729c-3.343,1.337 -6.944,2.843 -10.586,3.006c-2.979,0.133 -5.478,-1.425 -8.3,-2.061c-3.135,-0.707 -6.697,-0.475 -9.834,-0.127c-4.49,0.498 -12.221,7.269 -18.007,5.101c-3.991,-1.496 -6.828,-18.226 2.597,-18.058c4.255,0.075 9.06,-0.572 12.882,-2.657c2.279,-1.244 3.887,-3.549 6.038,-5.012c2.379,-1.621 5.096,-2.417 7.722,-3.491c1.868,-0.764 3.497,-2.205 5.476,-2.699c1.641,-0.41 3.476,-0.016 5.15,0.017c3.427,0.068 6.857,-0.158 10.276,-0.382c1.266,-0.084 3.254,-0.502 4.305,0.463c1.365,1.254 -0.233,2.726 -1.059,3.746c-2.553,3.153 -6.363,3.054 -10.145,3.315c-1.353,0.093 -2.666,0.319 -4.003,0.524c-0.46,0.071 -0.923,0.125 -1.384,0.191c-0.209,0.03 -0.785,-0.06 -0.629,0.081c2.079,1.878 5.885,1.208 8.509,1.613c0.506,0.078 1.01,0.159 1.513,0.244c1.04,0.175 2.075,0.361 3.107,0.547c1.532,0.277 3.06,0.552 4.59,0.788c1.372,0.212 2.747,0.392 4.132,0.513c0.371,0.032 0.742,0.06 1.114,0.084Z" style="fill:#fff;"/><path d="M52.318,26.561c0.159,0.017 0.315,0.037 0.467,0.06l1.531,0.246l3.122,0.546l4.56,0.777l4.048,0.498l1.083,0.081l4.278,0.027l1.62,-0.074l1.34,-0.032l1.158,-0.016c1.699,0.003 3.009,0.947 3.77,2.019c0.63,0.889 0.855,1.869 0.768,2.505c-0.072,0.526 -0.315,0.926 -0.651,1.194c-0.789,0.632 -1.874,1.085 -2.998,1.383c-1.913,0.508 -3.934,0.524 -4.042,0.564c-0.14,0.051 -0.287,0.077 -0.435,0.077c-0.41,-0.001 -0.941,0.292 -1.485,0.603c-1.317,0.751 -2.598,1.823 -2.598,1.823c-0.069,0.057 -0.143,0.107 -0.222,0.148l-3.317,1.548l-2.849,0.975l-0.092,0.047l-2.823,2.093c-0.455,0.257 -0.929,0.476 -1.414,0.673c-1.015,0.412 -2.079,0.721 -3.092,1.124c-2.043,0.815 -4.181,1.689 -6.365,2.296c-1.525,0.424 -3.072,0.719 -4.626,0.787c-1.004,0.044 -1.96,-0.078 -2.892,-0.295c-1.937,-0.452 -3.755,-1.353 -5.732,-1.8c-1.18,-0.267 -2.425,-0.39 -3.683,-0.423c-1.945,-0.051 -3.921,0.112 -5.748,0.314c-3.084,0.341 -7.71,3.723 -12.168,4.99c-2.226,0.633 -4.413,0.777 -6.397,0.032c-1.156,-0.434 -2.336,-1.817 -3.159,-3.805c-1.154,-2.787 -1.726,-6.76 -1.083,-10.053c0.729,-3.736 2.942,-6.611 7.285,-6.532c2.053,0.037 4.24,-0.099 6.374,-0.499c2.081,-0.391 4.112,-1.032 5.91,-2.015c0.615,-0.336 1.173,-0.761 1.708,-1.223c1.417,-1.225 2.69,-2.684 4.226,-3.732c1.011,-0.689 2.078,-1.24 3.175,-1.725c1.56,-0.689 3.18,-1.24 4.768,-1.89c1.275,-0.523 2.434,-1.374 3.678,-2.002c0.629,-0.317 1.278,-0.584 1.962,-0.755c0.587,-0.147 1.194,-0.21 1.811,-0.221c1.217,-0.021 2.477,0.176 3.658,0.199c1.349,0.025 2.698,0.005 4.047,-0.043c2.043,-0.073 4.086,-0.209 6.124,-0.345c0.959,-0.063 2.296,-0.276 3.411,-0.07c0.693,0.127 1.314,0.399 1.808,0.852c0.741,0.68 0.964,1.414 0.927,2.132c-0.06,1.161 -1.137,2.404 -1.86,3.298c-1.185,1.466 -2.603,2.329 -4.161,2.853c-1.472,0.495 -3.08,0.669 -4.725,0.786Zm14.046,10.26c0.434,-0.352 1.975,-1.568 3.399,-2.285c0.795,-0.401 1.573,-0.638 2.176,-0.638l-0.384,0.068c0.353,-0.043 2.328,-0.128 4.209,-0.631c0.6,-0.161 1.192,-0.365 1.68,-0.653c-0.258,-0.442 -0.96,-1.468 -1.921,-1.468l-1.109,0.018l-1.303,0.034l-1.556,0.073l-4.586,-0.019l-1.145,-0.086l-4.215,-0.528l-4.621,-0.798l-3.092,-0.549l-1.495,-0.243c-1.829,-0.284 -4.225,-0.062 -6.227,-0.511c-1.116,-0.25 -2.123,-0.69 -2.929,-1.42c-0.413,-0.374 -0.444,-0.757 -0.439,-0.998c0.009,-0.382 0.156,-0.733 0.525,-1.001c0.128,-0.093 0.339,-0.211 0.641,-0.249c0.135,-0.017 0.429,0.019 0.565,-0l1.371,-0.188l4.106,-0.531c2.158,-0.146 4.328,-0.148 6.242,-0.789c1.133,-0.378 2.168,-0.997 3.03,-2.06c0.362,-0.446 0.901,-0.977 1.2,-1.546c0.09,-0.17 0.164,-0.353 -0.015,-0.517c-0.232,-0.214 -0.564,-0.261 -0.905,-0.288c-0.851,-0.068 -1.787,0.097 -2.487,0.143c-2.063,0.134 -4.131,0.269 -6.2,0.34c-1.393,0.047 -2.787,0.067 -4.18,0.038c-1.004,-0.021 -2.064,-0.17 -3.106,-0.2c-0.588,-0.017 -1.17,0.005 -1.725,0.143c-0.509,0.127 -0.989,0.33 -1.458,0.566c-1.301,0.654 -2.52,1.531 -3.854,2.075c-1.568,0.64 -3.169,1.18 -4.71,1.858c-0.963,0.424 -1.903,0.904 -2.792,1.508c-1.463,0.994 -2.663,2.395 -4.013,3.558c-0.666,0.573 -1.364,1.095 -2.128,1.511c-2.016,1.098 -4.29,1.822 -6.621,2.258c-2.296,0.43 -4.649,0.581 -6.858,0.542c-2.975,-0.051 -4.383,2.035 -4.88,4.595c-0.552,2.84 -0.045,6.265 0.953,8.668c0.506,1.221 1.065,2.198 1.776,2.464c1.515,0.567 3.184,0.386 4.884,-0.099c4.593,-1.31 9.385,-4.727 12.563,-5.081c1.933,-0.215 4.023,-0.386 6.081,-0.334c1.42,0.036 2.825,0.179 4.157,0.478c1.983,0.447 3.808,1.347 5.75,1.798c0.717,0.166 1.453,0.264 2.225,0.229c1.369,-0.062 2.731,-0.331 4.074,-0.707c2.097,-0.587 4.147,-1.435 6.107,-2.221c1.007,-0.404 2.066,-0.712 3.075,-1.124c0.386,-0.157 0.763,-0.331 1.125,-0.536l2.882,-2.132l0.156,-0.08l3.026,-1.061c0,0 2.967,-1.392 2.976,-1.394Z"/><path id="Index-Finger-Bottom-Curve1" serif:id="Index Finger Bottom Curve" d="M72.798,33.854c0.691,0.141 1.137,0.817 0.996,1.508c-0.142,0.691 -0.817,1.137 -1.508,0.996c-0.934,-0.2 -2.135,-0.225 -3.34,-0.172c-2.287,0.101 -4.588,0.483 -5.346,0.598c-2.187,0.353 -4.625,0.934 -6.985,0.991c-1.76,0.043 -3.479,-0.202 -5.058,-0.977c-0.63,-0.317 -0.883,-1.087 -0.565,-1.716c0.317,-0.63 1.086,-0.884 1.716,-0.566c1.197,0.619 2.515,0.815 3.864,0.801c2.246,-0.024 4.567,-0.595 6.651,-0.918c0.792,-0.131 3.199,-0.552 5.593,-0.696c1.435,-0.086 2.865,-0.067 3.982,0.151Z"/><path id="Middle-Finger-Bottom-Curve" serif:id="Middle Finger Bottom Curve" d="M60.79,39.18c0.705,-0 1.278,0.573 1.278,1.278c-0,0.705 -0.573,1.278 -1.278,1.278c-1.271,-0.014 -2.459,-0.094 -3.651,-0.017c-0.718,0.047 -1.439,0.151 -2.183,0.374c-2.231,0.689 -4.522,1.995 -6.879,2.399c-1.176,0.202 -2.368,0.199 -3.583,-0.146l-2.01,-0.93c-0.595,-0.378 -0.772,-1.168 -0.394,-1.764c0.378,-0.595 1.168,-0.772 1.764,-0.394l1.349,0.683c1.136,0.346 2.254,0.245 3.353,-0.046c1.943,-0.515 3.83,-1.558 5.682,-2.131c0.925,-0.293 1.822,-0.439 2.718,-0.514c1.251,-0.104 2.499,-0.056 3.834,-0.07Z"/></g></g></svg>