<?xml version="1.0" encoding="UTF-8" standalone="no"?>
<!DOCTYPE svg PUBLIC "-//W3C//DTD SVG 1.1//EN" "http://www.w3.org/Graphics/SVG/1.1/DTD/svg11.dtd">
<svg width="100%" height="100%" viewBox="0 0 1024 1025" version="1.1" xmlns="http://www.w3.org/2000/svg" xmlns:xlink="http://www.w3.org/1999/xlink" xml:space="preserve" xmlns:serif="http://www.serif.com/" style="fill-rule:evenodd;clip-rule:evenodd;stroke-linecap:square;stroke-linejoin:round;stroke-miterlimit:1.5;">
    <g transform="matrix(1,0,0,1,-2390,-238)">
        <g id="Logo-Transparent" serif:id="Logo Transparent" transform="matrix(2,0,0,2,-3370.67,238.368)">
            <rect x="2880.33" y="0" width="512" height="512" style="fill:none;"/>
            <g id="Logo" transform="matrix(0.864141,0,0,1.28919,435.022,19.2486)">
                <g id="Page" transform="matrix(0.578609,0,0,0.387839,2829.76,-77.5752)">
                    <path d="M821.202,368.188L159.584,368.188L159.584,809.314L380.168,1029.9L821.202,1029.9L821.202,368.188Z" style="fill:rgb(214,0,0);"/>
                    <clipPath id="_clip1">
                        <path d="M821.202,368.188L159.584,368.188L159.584,809.314L380.168,1029.9L821.202,1029.9L821.202,368.188Z"/>
                    </clipPath>
                    <g clip-path="url(#_clip1)">
                        <g id="Corner" transform="matrix(2,0,0,2,-5760.67,161.522)">
                            <g transform="matrix(0.5,0,0,0.5,2880.33,-80.7608)">
                                <path d="M157.994,811.003C157.062,810.126 157.018,808.657 157.895,807.725C158.772,806.793 160.241,806.748 161.173,807.625C184.937,829.478 228.139,845.621 275.323,853.617C317.068,860.692 361.922,861.307 399.164,854.024C402.242,853.47 405.191,855.519 405.745,858.598C406.299,861.676 404.249,864.624 401.171,865.178C362.69,871.509 316.659,869.441 273.964,861.035C225.774,851.547 181.861,833.985 157.994,811.003Z"/>
                            </g>
                            <g transform="matrix(0.5,0,0,0.5,2880.33,-80.7608)">
                                <path d="M385.012,1026.96C386.634,1029.63 385.781,1033.12 383.108,1034.74C380.434,1036.37 376.946,1035.51 375.323,1032.84C375.899,1031.69 375.702,1032.17 376.124,1030.9C376.528,1029.68 376.655,1029.06 376.526,1027.67C376.368,1025.96 375.255,1024.34 374.709,1022.44C369.802,1005.3 370.511,974.608 374.515,943.223C378.722,910.248 386.487,876.585 395.036,857.198C396.362,854.366 399.739,853.143 402.571,854.47C405.403,855.796 406.626,859.173 405.299,862.005C394.534,883.709 383.919,924.723 379.237,961.423C376.044,986.448 375.514,1009.46 379.555,1022.83C379.886,1023.93 379.982,1025.13 380.658,1025.91C381.434,1026.81 382.114,1026.8 383.171,1027.08C384.307,1027.38 383.88,1026.94 385.012,1026.96Z"/>
                            </g>
                        </g>
                    </g>
                    <path d="M825.728,368.188C825.728,368.188 826.706,404.8 827.235,460.828C827.352,473.18 827.336,486.476 827.34,500.531C827.393,693.639 826.237,1029.9 826.237,1029.9L826.237,1034.93L821.202,1034.93C821.202,1034.93 722.143,1034.85 600.684,1034.2C529.726,1033.82 451.13,1033.09 380.168,1032.57L379.062,1032.57L378.281,1031.79C378.281,1031.79 349.459,1002.39 312.449,965.266C247.578,900.187 157.734,811.164 157.734,811.164L156.967,810.398L155.557,368.188L155.557,364.161L821.202,363.663L825.728,363.663L825.728,368.188ZM816.564,372.71C816.564,372.71 163.598,372.218 163.598,372.218C163.457,416.359 162.203,808.241 162.203,808.241C171.033,817.15 253.991,900.832 315.535,962.18C349.074,995.612 376.299,1022.36 381.25,1027.22C451.928,1026.7 530.086,1025.98 600.684,1025.6C706.03,1025.03 794.525,1024.9 816.151,1024.87C816.008,982.322 815.016,679.766 815.065,500.531C815.069,486.476 815.053,473.18 815.169,460.828C815.59,416.357 816.292,384.118 816.564,372.71Z"/>
                </g>
                <g id="Page-Turning-Hand" serif:id="Page Turning Hand" transform="matrix(1.24084,0,0,1.24084,-746.809,-69.8218)">
                    <g id="Hand" transform="matrix(1.18794,0,0,0.796267,2880.33,0)">
                        <path d="M276.452,338.005C289.805,337.593 324.321,339.621 333.639,326.089C341.485,314.696 335.356,282.579 319.485,272.756C308.412,265.902 293.485,281.263 270.989,286.274C258.705,289.01 237.068,283.806 224.915,282.679C204.178,280.757 154.597,300.096 149.005,303.429C146.079,305.173 140.006,309.422 133.508,316.075C131.508,318.122 119.525,327.054 121.737,330.179C123.868,333.188 127.275,332.84 133.386,330.188C133.667,330.066 124.785,335.604 123.941,336.184C120.226,338.74 116.721,340.069 112.866,344.284C110.399,346.981 112.408,349.274 112.408,350.452C112.408,351.63 102.246,357.219 97.955,358.291C84.144,361.743 90.103,373.968 107.004,370.68C112.796,369.553 127.098,365.355 132.061,362.272C138.068,358.54 150.974,353.021 150.942,354.088C150.942,354.088 152.126,359.412 154.082,361.034C158.275,364.512 169.945,375.107 176.097,374.956C186.432,374.7 197.254,371.874 207.158,369.177C230.244,362.892 252.54,338.743 276.452,338.005Z" style="fill:white;"/>
                        <path d="M110.903,350.057C110.71,349.177 110.024,347.894 110.253,346.387C110.399,345.433 110.822,344.393 111.811,343.318C113.295,341.704 114.729,340.494 116.143,339.478C118.492,337.79 120.779,336.662 123.154,335.039C123.391,334.877 124.257,334.329 125.377,333.626C123.372,333.499 121.855,332.641 120.66,330.942C119.829,329.761 120.084,327.931 121.466,325.928C124.192,321.979 131.113,316.709 132.603,315.192C135.227,312.52 137.782,310.233 140.093,308.334C143.617,305.44 146.581,303.447 148.379,302.38C151.927,300.272 173.042,291.792 193.407,286.288C205.455,283.032 217.242,280.826 225.02,281.551C233.322,282.32 246.053,285 257.198,285.734C262.238,286.066 266.946,285.999 270.739,285.15C287.107,281.474 299.46,272.334 309.245,270.245C313.244,269.392 316.845,269.659 320.146,271.688C327.978,276.452 333.576,286.415 336.486,296.84C339.759,308.565 339.499,320.847 335.27,327.212C332.111,332.004 326.125,335.162 318.921,337.193C304.749,341.191 285.721,340.815 276.554,341.307C269.528,341.381 262.603,343.593 255.754,346.807C239.577,354.397 223.801,367.126 207.735,371.295C201.735,372.891 195.403,374.53 189.047,375.634C184.727,376.384 180.396,376.89 176.147,376.973C173.849,377.019 170.844,375.85 167.725,373.978C162.017,370.552 155.73,364.882 152.875,362.49C152.037,361.788 151.265,360.584 150.674,359.252C150.192,358.166 149.813,357.006 149.552,356.103C149.549,356.103 149.547,356.104 149.545,356.105C145.791,357.291 137.449,361.019 132.987,363.762C130.84,365.082 127.026,366.61 122.862,368.01C117.139,369.934 110.753,371.639 107.318,372.293C97.009,374.256 90.492,370.615 89.075,366.703C87.799,363.179 89.994,358.681 97.586,356.815C99.055,356.455 101.243,355.533 103.448,354.46C106.034,353.202 108.643,351.731 110.167,350.646C110.429,350.46 110.717,350.219 110.903,350.057ZM149.148,354.56C149.137,354.514 149.132,354.49 149.132,354.49C149.099,354.34 149.084,354.186 149.089,354.032C149.082,354.221 149.103,354.396 149.148,354.56ZM276.35,334.703C284.116,334.64 299.073,335.614 312.038,333.719C320.605,332.466 328.322,330.089 332.009,324.966C336.011,319.357 336.308,308.246 333.615,297.603C331.136,287.807 326.067,278.384 318.824,273.824C316.088,272.119 313.081,271.947 309.75,272.641C299.967,274.679 287.601,283.783 271.239,287.397C267.262,288.279 262.329,288.355 257.048,288.001C245.882,287.252 233.128,284.579 224.811,283.808C217.229,283.109 205.746,285.311 194.01,288.509C173.934,293.979 153.124,302.39 149.63,304.479C147.902,305.513 145.053,307.443 141.669,310.245C139.427,312.103 136.953,314.344 134.412,316.958C133.297,318.106 129.064,321.418 125.941,324.658C124.615,326.034 123.488,327.38 122.986,328.523C122.828,328.884 122.647,329.182 122.814,329.416C123.613,330.537 124.656,331.013 126.066,330.971C127.817,330.919 130.015,330.181 132.846,328.943C133.509,328.653 133.939,328.939 134.044,328.996C134.572,329.284 134.855,329.74 134.727,330.435C134.705,330.552 134.656,330.869 134.305,331.192C134.28,331.214 134.202,331.282 134.064,331.375C133.922,331.471 133.613,331.671 133.19,331.942C130.952,333.374 125.386,336.875 124.729,337.33C122.383,338.953 120.12,340.082 117.8,341.77C116.533,342.692 115.249,343.789 113.921,345.249C113.273,345.963 113.06,346.619 113.079,347.217C113.122,348.601 113.859,349.732 113.862,350.452C113.864,350.788 113.736,351.307 113.248,351.853C112.66,352.51 111.16,353.581 109.247,354.716C105.797,356.761 100.976,359.093 98.324,359.767C92.016,361.37 90.398,364.93 93.359,367.362C95.767,369.341 100.41,370.315 106.691,369.067C110.023,368.405 116.215,366.695 121.761,364.779C125.615,363.447 129.154,362.025 131.135,360.782C135.785,357.862 144.494,353.875 148.416,352.594C149.755,352.156 150.733,352.069 151.134,352.14C152.291,352.345 152.721,353.036 152.787,353.832C152.913,354.348 153.374,356.127 154.097,357.713C154.438,358.464 154.812,359.187 155.29,359.579C157.719,361.575 162.681,365.964 167.6,369.228C170.732,371.305 173.787,373.005 176.047,372.938C180.09,372.817 184.207,372.289 188.311,371.529C194.53,370.378 200.718,368.692 206.581,367.059C222.311,362.575 237.571,349.704 253.263,341.713C260.823,337.863 268.48,335.106 276.35,334.703Z"/>
                    </g>
                    <g id="Middle-Finger-Upper-Curve" serif:id="Middle Finger Upper Curve" transform="matrix(1.18794,0,0,0.796267,2880.33,0)">
                        <path d="M134.106,331.358C133.487,331.816 132.612,331.685 132.154,331.065C131.696,330.446 131.827,329.571 132.447,329.113C135.807,326.675 137.025,325.512 138.786,324.217C139.9,323.398 141.229,322.536 143.401,321.268C145.46,320.083 147.605,319.045 149.806,318.107C153.964,316.336 158.31,314.958 162.534,313.5C165.414,312.505 168.208,311.415 170.904,310.323C172.669,309.608 174.392,308.901 176.024,308.082C176.096,308.042 176.188,308.068 176.228,308.14C176.269,308.212 176.243,308.304 176.171,308.345C174.798,309.198 173.37,310.016 171.86,310.749C168.992,312.144 165.881,313.272 162.759,314.512C159.752,315.706 156.719,316.958 153.737,318.322C150.58,319.767 147.507,321.368 144.647,323.277C143.26,324.191 142.255,324.911 141.417,325.531C139.028,327.3 138.055,328.373 134.106,331.358Z"/>
                    </g>
                    <g id="Index-Finger-Upper-Curve" serif:id="Index Finger Upper Curve" transform="matrix(1.18794,0,0,0.796267,2880.33,0)">
                        <path d="M112.351,352.486C111.787,352.948 110.954,352.864 110.492,352.3C110.03,351.735 110.114,350.902 110.679,350.44C112.689,348.823 119,344.845 125.918,341.245C131.729,338.221 137.966,335.469 142.394,334.511C158.142,331.105 164.967,324.09 174.852,321.845C176.736,321.418 178.728,321.131 180.909,321.13C183.58,321.13 186.518,321.547 189.882,322.389C189.927,322.399 189.957,322.443 189.947,322.488C189.938,322.533 189.894,322.562 189.849,322.553C186.475,322.008 183.563,321.915 180.936,322.065C178.834,322.185 176.918,322.461 175.111,322.921C165.247,325.434 158.555,332.61 142.828,336.408C139.34,337.248 134.714,339.298 130.102,341.686C124.657,344.506 119.262,347.84 115.7,350.173C114.196,351.159 113.018,351.949 112.351,352.486Z"/>
                    </g>
                    <g id="Index-Finger-Bottom-Curve" serif:id="Index Finger Bottom Curve" transform="matrix(1.18794,0,0,0.796267,2880.33,0)">
                        <path d="M149.942,353.981C154.408,352.688 159.411,351.535 168.31,348.286C186.072,341.8 190.282,349.581 207.206,343.696C207.206,343.696 200.192,346.248 196.477,347.947C188.154,351.755 187.865,353.498 178.68,353.975C174.501,354.192 172.957,348.804 161.466,350.639" style="fill:rgb(214,0,0);"/>
                    </g>
                    <g id="Index-Finger-Bottom-Curve1" serif:id="Index Finger Bottom Curve" transform="matrix(1.18794,0,0,0.796267,2880.33,0)">
                        <path d="M203.066,344.675C205.362,344.043 207.167,343.591 207.167,343.591C207.168,343.591 207.168,343.591 207.169,343.591C207.227,343.57 207.29,343.601 207.311,343.659C207.331,343.717 207.301,343.78 207.244,343.801C207.244,343.801 207.243,343.801 207.242,343.802C207.175,343.834 204.761,344.998 202.051,346.361C200.263,347.261 198.378,348.232 196.975,349.036C195.824,349.574 194.839,350.087 193.947,350.527C190.778,352.088 188.908,353.102 186.479,353.784C184.563,354.323 182.291,354.628 178.717,354.691C175.929,354.867 174.258,352.579 170.162,351.594C168.316,351.151 165.948,351.063 162.705,351.621C161.597,351.995 160.562,352.334 159.59,352.649C155.855,353.861 153.033,354.685 150.389,355.525C149.537,355.772 148.645,355.28 148.399,354.428C148.152,353.576 148.643,352.684 149.496,352.437C152.586,351.628 155.939,350.939 160.634,349.53C162.746,348.896 165.12,348.089 167.877,347.102C172.6,345.347 176.395,344.575 179.727,344.309C184.908,343.896 188.949,344.464 193.658,344.761C196.418,344.935 199.384,345.199 203.066,344.675ZM168.563,349.537C168.624,349.547 168.684,349.557 168.744,349.568C173.988,350.49 175.574,353.369 178.643,353.258C182.001,352.969 184.119,352.544 185.889,351.92C188.172,351.115 189.833,349.908 192.839,348.341C193.534,347.979 194.305,347.616 195.164,347.226C194.464,347.304 193.781,347.35 193.107,347.363C191.085,347.401 189.176,347.199 187.237,347.064C182.225,346.715 176.991,346.503 168.742,349.469C168.682,349.492 168.622,349.514 168.563,349.537Z"/>
                    </g>
                </g>
                <g id="Microphone" transform="matrix(0.901027,0,0,0.603954,327.967,-49.3945)">
                    <g id="Body">
                        <g id="Handle" transform="matrix(1,0,0,1,0.333333,0)">
                            <path d="M3132.97,282.819C3132.97,282.819 3184.61,248.283 3217.34,232.737C3223.69,229.719 3265.57,285.177 3248.63,294.432C3241.68,298.228 3138.33,288.318 3132.97,282.819Z" style="fill:white;"/>
                            <path d="M3132.37,281.92C3132.37,281.92 3156.43,265.591 3182.12,250.258C3194.03,243.151 3206.29,236.271 3216.65,231.294C3217.79,230.75 3219.89,231.158 3222.4,233.016C3228.94,237.855 3240.48,252.161 3247.76,265.874C3251.87,273.603 3254.6,281.166 3254.52,286.791C3254.46,291.031 3252.89,294.279 3249.56,296.122C3248.56,296.672 3245.82,297.104 3241.75,297.208C3229.16,297.529 3202.45,295.705 3178.57,293.118C3166.16,291.774 3154.5,290.328 3146.02,288.699C3144.52,288.413 3143.12,288.138 3141.86,287.791C3136.42,286.305 3133.03,284.621 3132.2,283.573C3131.97,283.343 3131.86,283.025 3131.9,282.706C3131.93,282.387 3132.1,282.099 3132.37,281.92ZM3135.26,282.61C3136.1,282.786 3137.23,282.941 3138.59,283.138C3140.01,283.344 3141.66,283.475 3143.52,283.741C3144.56,283.889 3145.65,284.113 3146.8,284.311C3160.46,286.67 3182.26,289.318 3202.24,291.09C3216.95,292.394 3230.66,293.281 3239.37,293.311C3243.76,293.326 3246.75,293.26 3247.71,292.742C3249.85,291.585 3250.69,289.428 3250.75,286.724C3250.86,281.57 3248.29,274.66 3244.59,267.545C3238.77,256.361 3230.08,244.729 3223.72,238.478C3221.96,236.742 3220.39,235.43 3219.12,234.707C3218.61,234.414 3218.3,234.054 3218.03,234.181C3207.69,239.035 3195.47,245.784 3183.57,252.72C3161.83,265.402 3141.18,278.747 3135.26,282.61Z"/>
                        </g>
                        <g id="Connector">
                            <g id="Bottom-Edge" serif:id="Bottom Edge" transform="matrix(1.64228,0,0,1.64228,2618.83,-102.47)">
                                <path d="M397.251,237.496L390.654,236.609L384.691,241.55C384.691,241.55 382.88,222.099 364.711,203.921L371.659,201.992L375.039,197.462L377.222,194.746C396.864,215.647 408.579,239.381 397.251,237.496Z" style="fill:white;"/>
                                <path d="M397.097,238.592L391.05,237.9L385.568,242.608L383.324,241.678C383.324,241.678 383.149,240.338 382.635,238.025C382.473,237.296 382.288,236.469 382.059,235.559C381.158,231.97 379.686,227.063 376.882,221.609C375.956,219.808 374.879,217.952 373.642,216.067C371.153,212.27 368.005,208.363 364.135,204.497L363.147,203.509L371.159,201.267C371.159,201.267 374.354,196.951 374.363,196.939L376.545,194.202L377.171,193.424L377.854,194.151C387.975,204.829 396.017,216.263 399.986,224.667C401.879,228.676 402.84,232.037 402.75,234.354C402.683,236.079 402.052,237.31 400.965,238.023C400.069,238.612 398.796,238.861 397.097,238.592ZM397.432,236.405C398.456,236.581 399.236,236.544 399.779,236.195C400.343,235.833 400.562,235.149 400.606,234.26C400.707,232.175 399.797,229.16 398.125,225.535C394.384,217.423 386.815,206.447 377.266,196.071L375.713,197.988L372.327,202.491L372.157,202.719C372.157,202.719 366.263,204.34 366.263,204.34C369.759,207.974 372.606,211.654 374.978,215.179C376.267,217.093 377.41,218.964 378.439,220.764C381.588,226.271 383.579,231.167 384.692,234.829C384.979,235.774 385.211,236.636 385.387,237.402C385.521,237.982 385.629,238.507 385.715,238.973L389.864,235.656L390.281,235.31C390.281,235.31 397.398,236.4 397.415,236.403L397.432,236.405Z"/>
                            </g>
                            <g id="Divots">
                                <g id="Bottom" transform="matrix(1.63905,0.102949,-0.102949,1.63905,2640.37,-142.752)">
                                    <path d="M391.791,231.669C392.256,233.417 392.658,235.194 393,237" style="fill:white;"/>
                                    <path d="M391.743,231.682C391.736,231.655 391.752,231.628 391.778,231.621C391.805,231.614 391.832,231.63 391.839,231.656C392.069,232.081 392.258,232.482 392.499,232.903C392.677,233.212 392.867,233.449 393.035,233.765C393.102,233.892 393.172,234.012 393.206,234.151C393.229,234.242 393.227,234.335 393.227,234.429C393.223,234.882 393.141,235.269 393.109,235.722C393.078,236.156 393.073,236.554 393.049,236.991C393.054,237.018 393.036,237.043 393.009,237.049C392.982,237.054 392.957,237.036 392.951,237.009C392.77,236.614 392.613,236.25 392.415,235.865C392.209,235.466 391.974,235.154 391.781,234.751C391.742,234.668 391.7,234.587 391.682,234.496C391.654,234.358 391.666,234.223 391.67,234.082C391.681,233.73 391.747,233.436 391.761,233.084C391.78,232.603 391.754,232.162 391.743,231.682Z"/>
                                </g>
                                <g id="Top" transform="matrix(1.63792,0.119567,-0.119567,1.63792,2641.87,-143.501)">
                                    <path d="M373,200C373.983,200.938 374.93,201.893 375.841,202.865" style="fill:white;"/>
                                    <path d="M372.966,200.036C372.946,200.017 372.945,199.986 372.964,199.966C372.983,199.946 373.014,199.945 373.034,199.964C373.372,200.126 373.649,200.284 373.991,200.43C374.254,200.543 374.464,200.581 374.722,200.703C374.821,200.75 374.916,200.787 374.995,200.862C375.047,200.911 375.077,200.973 375.11,201.036C375.275,201.357 375.331,201.631 375.471,201.961C375.604,202.272 375.737,202.525 375.877,202.831C375.896,202.851 375.895,202.882 375.875,202.901C375.855,202.92 375.824,202.919 375.805,202.899C375.51,202.74 375.265,202.596 374.961,202.452C374.64,202.301 374.369,202.244 374.055,202.076C373.994,202.043 373.933,202.014 373.886,201.963C373.813,201.885 373.778,201.791 373.732,201.694C373.611,201.439 373.575,201.23 373.459,200.973C373.307,200.635 373.142,200.364 372.966,200.036Z"/>
                                </g>
                            </g>
                        </g>
                    </g>
                    <g id="Head" transform="matrix(1.92089,0,0,2.08443,2498.41,-194.754)">
                        <path d="M383.331,199.849C386.972,189.044 400.363,179 414,179C430.557,179 444,190.65 444,205C444,219.35 430.004,232.529 413.447,232.529C410.086,232.529 402.674,231.314 401.32,231C403.174,223.385 393.143,205.608 383.331,199.849Z" style="fill:white;"/>
                        <clipPath id="_clip2">
                            <path d="M383.331,199.849C386.972,189.044 400.363,179 414,179C430.557,179 444,190.65 444,205C444,219.35 430.004,232.529 413.447,232.529C410.086,232.529 402.674,231.314 401.32,231C403.174,223.385 393.143,205.608 383.331,199.849Z"/>
                        </clipPath>
                        <g clip-path="url(#_clip2)">
                            <g id="Band">
                                <g id="Bottom1" serif:id="Bottom" transform="matrix(0.552958,0,0,0.509575,-1427.91,158.148)">
                                    <path d="M3342.59,144.432C3346.9,100.997 3314.9,64.529 3295.24,54.412" style="fill:none;stroke:black;stroke-width:3.22px;"/>
                                </g>
                                <g id="Top1" serif:id="Top" transform="matrix(0.552958,9.24446e-33,0,0.509575,-1427.91,158.148)">
                                    <path d="M3305.39,47.714C3332.12,62.807 3355.51,102.587 3353.95,140.237" style="fill:none;stroke:black;stroke-width:3.22px;"/>
                                </g>
                            </g>
                        </g>
                        <path d="M382.648,199.654C383.22,197.864 384.034,196.083 385.1,194.375C387.409,190.673 390.827,187.307 394.797,184.582C400.379,180.752 407.147,178.242 414,178.211C422.362,178.151 429.966,180.999 435.579,185.635C441.484,190.512 445.178,197.376 445.26,205C445.324,212.61 441.651,219.958 435.699,225.317C429.911,230.528 421.986,233.833 413.447,233.818C412.158,233.8 410.296,233.61 408.392,233.347C405.203,232.908 401.894,232.285 401.028,232.069C400.399,231.923 400.011,231.342 400.153,230.759C401.179,226.903 399.022,220.256 395.373,214.029C392.058,208.371 387.469,203.086 382.947,200.405C382.675,200.246 382.552,199.938 382.648,199.654ZM384.188,199.576C388.753,202.402 393.306,207.705 396.782,213.308C400.551,219.384 402.98,225.844 402.65,230.117C404.051,230.345 406.431,230.68 408.741,230.927C410.517,231.118 412.25,231.256 413.447,231.24C421.229,231.226 428.382,228.128 433.686,223.408C439.149,218.547 442.681,211.945 442.74,205C442.815,197.988 439.528,191.617 434.184,187.044C428.989,182.598 421.866,179.845 414,179.789C407.488,179.759 401.01,182.07 395.701,185.702C391.899,188.303 388.743,191.605 386.491,195.122C385.561,196.576 384.77,198.062 384.188,199.576Z"/>
                    </g>
                </g>
                <g id="Mic-Holding-Hand" serif:id="Mic Holding Hand" transform="matrix(1.22776,0,0,0.822963,-789.889,8.92885)">
                    <g id="Hand1" serif:id="Hand" transform="matrix(1,0,0,1,-78.3627,10.8993)">
                        <path d="M3333.46,132.416C3339.09,132.769 3344.76,132.84 3350.52,132.503C3352.56,132.384 3354.6,132.288 3356.63,132.22C3358.33,132.164 3360.03,132.123 3361.72,132.091C3363.17,132.064 3364.63,132.027 3366.08,132.029C3375.74,132.037 3380.78,143.125 3378.01,145.35C3370.13,151.661 3352.92,151.863 3352.28,152.097C3345.99,152.09 3333.46,162.582 3333.46,162.582C3329.45,164.691 3325.37,166.657 3321.15,168.34C3317.53,169.786 3313.35,170.528 3309.84,172.259C3309.68,172.338 3309.52,172.419 3309.36,172.503C3305.3,174.653 3302.36,178.381 3298.38,180.635C3293.15,183.598 3287.18,185.068 3281.62,187.291C3268.75,192.439 3254.89,198.233 3240.87,198.861C3229.4,199.375 3219.78,193.377 3208.92,190.927C3196.85,188.205 3183.14,189.099 3171.06,190.439C3153.78,192.357 3124.01,218.422 3101.74,210.076C3086.37,204.318 3075.45,139.911 3111.74,140.557C3128.12,140.849 3146.62,138.355 3161.33,130.328C3170.1,125.542 3176.3,116.668 3184.57,111.033C3193.73,104.796 3204.19,101.73 3214.3,97.596C3221.49,94.656 3227.76,89.108 3235.38,87.206C3241.7,85.627 3248.76,87.144 3255.21,87.272C3268.4,87.533 3281.61,86.663 3294.77,85.799C3299.64,85.478 3307.3,83.867 3311.34,87.583C3316.6,92.409 3310.45,98.078 3307.27,102.005C3297.43,114.141 3282.77,113.759 3268.21,114.764C3263,115.123 3257.95,115.995 3252.8,116.784C3251.03,117.055 3249.25,117.266 3247.47,117.519C3246.67,117.634 3244.45,117.285 3245.05,117.831C3253.05,125.06 3267.7,122.48 3277.81,124.037C3279.75,124.338 3281.69,124.653 3283.63,124.979C3287.63,125.653 3291.62,126.37 3295.59,127.086C3301.49,128.149 3307.37,129.209 3313.26,130.118C3318.55,130.933 3323.84,131.626 3329.17,132.092C3330.6,132.217 3332.03,132.325 3333.46,132.416Z" style="fill:white;"/>
                        <path d="M3248.19,118.643C3250.05,119.75 3252.16,120.482 3254.41,120.984C3261.99,122.679 3271.06,121.794 3277.99,122.867L3283.83,123.815L3295.8,125.933L3313.44,128.973L3329.27,130.95L3333.53,131.271C3336.34,131.432 3339.16,131.522 3341.99,131.525C3344.8,131.528 3347.61,131.445 3350.45,131.264L3356.59,130.945L3361.7,130.787L3366.08,130.7C3371.34,130.675 3375.39,133.625 3377.76,136.928C3380.51,140.746 3380.65,145.067 3378.91,146.478C3376.22,148.66 3372.49,150.185 3368.65,151.233C3361.16,153.273 3353.25,153.437 3352.83,153.595C3352.65,153.66 3352.47,153.693 3352.28,153.693C3350.28,153.702 3347.62,154.959 3344.97,156.491C3339.69,159.551 3334.56,163.901 3334.56,163.901C3334.47,163.98 3334.37,164.048 3334.26,164.105C3332.24,165.183 3330.2,166.225 3328.13,167.214C3326.05,168.206 3323.95,169.144 3321.82,170.011C3319.27,171.046 3316.44,171.739 3313.76,172.663C3312.69,173.032 3311.65,173.441 3310.67,173.934L3310.24,174.156C3309.51,174.55 3308.81,175.003 3308.15,175.489C3305.14,177.675 3302.57,180.475 3299.34,182.332C3297.7,183.274 3295.99,184.075 3294.24,184.799C3290.35,186.409 3286.27,187.621 3282.39,189.2C3274.63,192.356 3266.51,195.741 3258.21,198.109C3252.53,199.729 3246.77,200.87 3240.97,201.164C3237.34,201.348 3233.87,200.893 3230.49,200.152C3223.01,198.515 3215.94,195.251 3208.3,193.689C3203.61,192.79 3198.7,192.501 3193.74,192.513C3190.78,192.52 3187.82,192.689 3184.87,192.849C3180.29,193.097 3175.76,193.395 3171.44,193.832C3159.51,195.019 3141.5,207.843 3124.23,212.547C3116.07,214.772 3108.06,215.289 3100.84,212.485C3096.8,210.92 3092.84,205.929 3090.03,198.927C3085.86,188.542 3083.87,173.788 3086.36,161.593C3089.02,148.59 3096.63,138.443 3111.77,138.831C3119.87,139.01 3128.49,138.509 3136.91,136.965C3145.25,135.435 3153.38,132.887 3160.6,128.981C3163.16,127.59 3165.49,125.835 3167.72,123.918C3173.1,119.298 3177.92,113.766 3183.74,109.817C3187.48,107.285 3191.43,105.266 3195.47,103.489C3201.46,100.863 3207.68,98.77 3213.77,96.292C3218.76,94.258 3223.31,90.953 3228.18,88.508C3230.38,87.401 3232.65,86.463 3235.05,85.868C3237.07,85.367 3239.15,85.161 3241.28,85.128C3245.92,85.054 3250.73,85.824 3255.23,85.919C3260.49,86.03 3265.74,85.96 3271,85.783C3278.9,85.516 3286.8,85.006 3294.68,84.499C3297.62,84.309 3301.56,83.671 3305.13,83.96C3307.85,84.18 3310.36,84.934 3312.21,86.639C3314.8,89.03 3315.09,91.592 3314.27,94.105C3313.25,97.259 3310.22,100.363 3308.24,102.797C3304.13,107.865 3299.22,110.838 3293.82,112.644C3285.99,115.264 3277.12,115.385 3268.29,115.988C3266.24,116.128 3264.2,116.349 3262.18,116.614C3259.11,117.015 3256.06,117.515 3252.98,117.985L3248.19,118.643ZM3351.89,150.57C3353.14,150.42 3360.68,150.197 3367.87,148.324C3371.31,147.426 3374.68,146.144 3377.1,144.222C3377.46,143.941 3377.39,143.351 3377.28,142.67C3377.03,140.995 3375.98,138.883 3374.3,137.092C3372.36,135.025 3369.56,133.38 3366.08,133.358L3361.74,133.396L3356.68,133.496L3350.59,133.743C3347.7,133.896 3344.83,133.948 3341.98,133.913C3339.1,133.878 3336.24,133.755 3333.39,133.56L3329.07,133.235L3313.09,131.263L3295.38,128.239L3283.43,126.143L3277.63,125.208C3270.65,124.138 3261.52,125.026 3253.88,123.33C3250.22,122.517 3246.89,121.12 3244.24,118.728C3243.19,117.777 3243.68,117.058 3244.28,116.626C3244.61,116.382 3246.51,116.433 3247.3,116.32L3252.61,115.582C3255.71,115.105 3258.78,114.598 3261.86,114.19C3263.94,113.916 3266.02,113.687 3268.12,113.54C3276.74,112.939 3285.39,112.851 3293.03,110.282C3297.99,108.614 3302.51,105.879 3306.29,101.212C3308.09,98.986 3310.92,96.203 3311.85,93.323C3312.37,91.702 3312.15,90.062 3310.47,88.526C3309.03,87.201 3307.04,86.698 3304.93,86.532C3301.48,86.261 3297.69,86.909 3294.85,87.099C3286.94,87.628 3279.02,88.16 3271.09,88.447C3265.79,88.64 3260.48,88.723 3255.18,88.625C3250.71,88.542 3245.93,87.785 3241.32,87.869C3239.41,87.905 3237.53,88.087 3235.72,88.543C3233.52,89.095 3231.44,89.966 3229.42,90.987C3224.49,93.477 3219.89,96.826 3214.83,98.9C3208.78,101.39 3202.59,103.494 3196.64,106.132C3192.76,107.853 3188.98,109.803 3185.4,112.249C3179.68,116.16 3174.98,121.64 3169.7,126.211C3167.31,128.28 3164.81,130.169 3162.06,131.675C3154.59,135.782 3146.16,138.487 3137.51,140.141C3128.87,141.792 3120.02,142.395 3111.71,142.283C3098.68,142.153 3092.36,151.127 3090.28,162.357C3088.17,173.772 3090.35,187.495 3094.45,197.092C3096.74,202.444 3099.5,206.531 3102.64,207.668C3108.89,209.925 3115.73,209.172 3122.68,207.102C3133.82,203.785 3145.2,197.032 3155.08,192.349C3160.85,189.614 3166.17,187.59 3170.68,187.046C3176.84,186.354 3183.42,185.671 3190,185.722C3196.68,185.774 3203.34,186.556 3209.54,188.165C3217.15,190.043 3224.09,193.709 3231.56,195.549C3234.52,196.278 3237.57,196.683 3240.77,196.559C3246.22,196.346 3251.66,195.324 3257.03,193.861C3265.2,191.632 3273.21,188.392 3280.86,185.383C3284.75,183.852 3288.85,182.691 3292.75,181.129C3294.35,180.488 3295.91,179.779 3297.42,178.939C3300.55,177.188 3303.03,174.495 3305.94,172.425C3306.76,171.848 3307.6,171.314 3308.49,170.849L3309.01,170.583C3310.15,170.031 3311.35,169.573 3312.58,169.164C3315.2,168.291 3317.98,167.652 3320.48,166.669C3322.56,165.853 3324.61,164.968 3326.63,164.03C3328.61,163.11 3330.57,162.14 3332.51,161.137C3333.42,160.389 3338.32,156.463 3343.34,153.634C3346.57,151.815 3349.86,150.484 3352.28,150.501L3351.89,150.57Z"/>
                    </g>
                    <g id="Index-Finger-Bottom-Curve2" serif:id="Index Finger Bottom Curve" transform="matrix(1.13546,0,0,1.13546,1161.82,-86.6222)">
                        <path d="M1862.17,219.664C1852.53,217.692 1835.32,220.66 1831.21,221.311C1819.09,223.229 1804.64,227.417 1792.97,221.533" style="fill:white;"/>
                        <path d="M1862.17,219.664C1861.41,219.759 1860.76,219.976 1859.93,220.047C1859.63,220.073 1859.32,220.046 1859.01,220.031C1855.27,219.849 1850.9,219.812 1846.72,220.216C1839.93,220.871 1833.68,222.181 1831.42,222.601C1827.04,223.379 1822.39,224.597 1817.63,225.254C1814.47,225.69 1811.26,225.865 1808.12,225.753C1804.87,225.637 1801.7,225.185 1798.69,224.209C1796.69,223.561 1794.8,222.674 1792.97,221.533C1796.61,223.01 1800.39,223.497 1804.27,223.499C1806.91,223.5 1809.57,223.232 1812.24,222.876C1814.01,222.642 1815.78,222.357 1817.55,222.085C1822.16,221.374 1826.74,220.611 1831.01,220.02C1833.03,219.761 1838.2,219.106 1844.08,218.629C1846.93,218.398 1849.94,218.166 1852.85,218.139C1855.18,218.117 1857.44,218.115 1859.48,218.441C1859.68,218.471 1859.87,218.497 1860.05,218.559C1860.88,218.845 1861.47,219.259 1862.17,219.664Z"/>
                    </g>
                    <g id="Middle-Finger-Bottom-Curve" serif:id="Middle Finger Bottom Curve" transform="matrix(1.13546,0,0,1.13546,1159.82,-86.6222)">
                        <path d="M1824.09,237.81C1816.75,237.81 1810.2,237.213 1803.09,239.406C1792.5,242.671 1781.56,250.311 1770.04,246.914C1768,246.313 1766.13,245.316 1764.34,244.18" style="fill:white;"/>
                        <path d="M1824.09,237.804C1824.09,237.804 1824.09,237.806 1824.09,237.81C1824.09,237.813 1824.09,237.816 1824.09,237.816C1823.6,238.155 1823.44,238.439 1822.89,238.639C1822.8,238.673 1822.7,238.663 1822.6,238.667C1818.03,238.852 1813.74,238.337 1809.39,238.896C1807.4,239.151 1805.4,239.61 1803.36,240.282C1797.05,242.391 1790.7,246.221 1784.04,248.015C1782.64,248.392 1781.23,248.677 1779.81,248.799C1776.49,249.085 1773.19,248.651 1769.91,247.364C1768.89,246.98 1767.92,246.508 1766.99,245.96C1766.07,245.421 1765.2,244.823 1764.34,244.186C1764.34,244.184 1764.34,244.18 1764.34,244.177C1764.34,244.174 1764.34,244.173 1764.35,244.175C1765.28,244.677 1766.23,245.138 1767.2,245.534C1768.16,245.925 1769.15,246.242 1770.17,246.465C1773.38,247.116 1776.41,246.811 1779.44,246.21C1780.73,245.953 1782.02,245.649 1783.31,245.301C1789.92,243.519 1796.47,240.326 1802.82,238.531C1806.47,237.444 1809.96,237.092 1813.48,236.968C1816.27,236.87 1819.07,236.862 1821.98,236.918C1822.26,236.923 1822.56,236.857 1822.82,236.944C1823.4,237.133 1823.57,237.459 1824.09,237.804Z"/>
                    </g>
                </g>
            </g>
        </g>
    </g>
</svg>
