<?xml version="1.0" encoding="UTF-8" standalone="no"?><!DOCTYPE svg PUBLIC "-//W3C//DTD SVG 1.1//EN" "http://www.w3.org/Graphics/SVG/1.1/DTD/svg11.dtd"><svg width="100%" height="100%" viewBox="0 0 3200 3204" version="1.1" xmlns="http://www.w3.org/2000/svg" xmlns:xlink="http://www.w3.org/1999/xlink" xml:space="preserve" xmlns:serif="http://www.serif.com/" style="fill-rule:evenodd;clip-rule:evenodd;stroke-linecap:square;stroke-linejoin:round;stroke-miterlimit:1.5;"><rect id="Logo-Icon" serif:id="Logo Icon" x="0" y="1.63" width="3200" height="3200" style="fill:none;"/><g id="Logo"><path id="Page" d="M2566.26,647.464l-2067.56,-0l0,1378.52l689.324,689.324l1378.23,-0l0,-2067.84Z" style="fill:#d60000;"/><clipPath id="_clip1"><path d="M2566.26,647.464l-2067.56,-0l0,1378.52l689.324,689.324l1378.23,-0l0,-2067.84Z"/></clipPath><g clip-path="url(#_clip1)"><g id="Corner"><path d="M493.124,2027.36c-4.024,-13.76 -6.359,-28.981 9.188,-13.891c2.064,2.003 3.531,4.067 8.432,5.504c9.944,2.914 26.982,-0.13 48.179,-0.395c52.644,-0.658 133.473,-2.094 216.808,-3.647c158.185,-2.949 325.212,-6.652 325.212,-6.652c9.773,0 17.708,7.935 17.708,17.709c0,9.773 -7.935,17.708 -17.708,17.708c-0,-0 -167.027,-3.703 -325.212,-6.651c-83.335,-1.554 -164.164,-2.99 -216.808,-3.648c-21.196,-0.265 -38.234,-3.309 -48.179,-0.395c-4.901,1.437 -6.367,3.501 -8.431,5.504c-2.705,2.625 -3.576,3.924 -3.787,4.565c0.057,0.207 0.115,0.415 0.173,0.625c0,-0 -0.072,-0.183 -0.203,-0.524c-0.123,0.497 0.203,0.524 0.203,0.524c-9.773,-0 -17.708,-7.935 -17.708,-17.708c-0,-7.826 5.087,-14.474 12.133,1.372Z"/><path d="M1204.95,2716.09l0.782,-0.782c-0,0.434 -0.016,0.864 -0.047,1.29c25.984,18.201 -17.662,16.418 -17.662,16.418c0,0 -48.763,1.992 -12.518,-19.729c2.285,-1.37 3.558,-0.403 5.504,-4.716c2.384,-5.284 -0.13,-15.092 -0.395,-26.947c-0.658,-29.457 -2.094,-74.641 -3.648,-121.261c-2.949,-88.522 -6.651,-181.894 -6.651,-181.894c0,-9.773 7.935,-17.708 17.708,-17.708c9.774,0 17.709,7.935 17.709,17.708c-0,0 -3.702,93.372 -6.651,181.894c-1.554,46.62 -2.99,91.804 -3.648,121.261c-0.265,11.855 -2.779,21.663 -0.395,26.947c1.946,4.313 3.219,3.346 5.504,4.716c1.639,0.982 3.104,1.916 4.408,2.803Z"/></g></g><path d="M2580.4,647.464c0,-0 3.056,114.411 4.711,289.498c0.365,38.601 0.314,80.152 0.326,124.071c0.166,603.465 -3.447,1654.27 -3.447,1654.27l0,15.732l-15.732,-0c0,-0 -309.561,-0.253 -689.118,-2.29c-221.746,-1.19 -467.358,-3.462 -689.116,-5.105l-3.453,-0l-2.441,-2.442c-0,-0 -90.07,-91.845 -205.725,-207.87c-202.722,-203.372 -483.486,-481.568 -483.486,-481.568l-2.395,-2.395l-4.408,-1381.9l-0,-12.584l2080.14,-1.558l14.142,-0l0,14.142Zm-28.635,14.131l-2040.52,-1.537c-0.428,133.915 -4.132,1292.12 -4.357,1362.57c27.593,27.841 286.836,289.347 479.162,481.059c104.809,104.474 189.887,188.071 205.357,203.257c220.871,-1.641 465.114,-3.896 685.734,-5.08c329.203,-1.766 605.751,-2.191 673.333,-2.273c-0.446,-132.96 -3.547,-1078.45 -3.394,-1638.56c0.012,-43.919 -0.038,-85.47 0.326,-124.071c1.314,-138.973 3.51,-239.719 4.36,-275.367Z"/><g id="Page-Turning-Hand" serif:id="Page Turning Hand"><path id="Hand" d="M2187.18,2250.24c106.304,-3.281 381.09,12.868 455.273,-94.861c62.458,-90.702 13.669,-346.393 -112.686,-424.596c-88.152,-54.559 -206.986,67.725 -386.079,107.618c-97.798,21.785 -270.048,-19.645 -366.798,-28.613c-165.096,-15.304 -559.816,138.658 -604.333,165.192c-23.293,13.884 -71.637,47.707 -123.374,100.674c-15.918,16.296 -111.32,87.408 -93.708,112.281c16.966,23.96 44.09,21.186 92.739,0.075c2.239,-0.972 -68.473,43.116 -75.19,47.736c-29.58,20.344 -57.485,30.928 -88.172,64.48c-19.64,21.473 -3.649,39.732 -3.649,49.106c-0,9.375 -80.894,53.87 -115.056,62.408c-109.953,27.482 -62.513,124.808 72.042,98.63c46.103,-8.969 159.964,-42.393 199.476,-66.94c47.82,-29.707 150.571,-73.647 150.314,-65.154c0,-0 9.43,42.387 25,55.303c33.378,27.689 126.287,112.038 175.265,110.828c82.278,-2.031 168.428,-24.534 247.278,-46.001c183.789,-50.037 361.289,-242.289 551.658,-248.166Z" style="fill:#fff;"/><path d="M869.23,2346.19c-1.542,-7.001 -7.001,-17.218 -5.175,-29.219c1.156,-7.591 4.523,-15.874 12.396,-24.426c11.821,-12.849 23.238,-22.487 34.493,-30.576c18.697,-13.435 36.905,-22.415 55.81,-35.336c1.887,-1.29 8.785,-5.651 17.703,-11.249c-15.961,-1.012 -28.039,-7.846 -37.557,-21.372c-6.613,-9.397 -4.585,-23.968 6.422,-39.913c21.702,-31.44 76.794,-73.393 88.663,-85.473c20.886,-21.274 41.227,-39.48 59.628,-54.593c28.057,-23.043 51.649,-38.906 65.964,-47.406c28.249,-16.78 196.347,-84.289 358.473,-128.105c95.912,-25.921 189.755,-43.486 251.673,-37.711c66.092,6.12 167.443,27.455 256.176,33.298c40.119,2.642 77.6,2.112 107.797,-4.65c130.309,-29.268 228.652,-102.033 306.55,-118.657c31.839,-6.795 60.509,-4.669 86.785,11.482c62.352,37.927 106.915,117.25 130.082,200.24c26.058,93.347 23.987,191.125 -9.675,241.8c-25.153,38.144 -72.805,63.283 -130.157,79.459c-112.824,31.822 -264.309,28.829 -337.288,32.751c-55.938,0.585 -111.069,18.197 -165.595,43.781c-128.784,60.427 -254.382,161.768 -382.284,194.956c-47.762,12.707 -98.173,25.75 -148.775,34.539c-34.393,5.973 -68.872,10.006 -102.698,10.662c-18.299,0.364 -42.218,-8.94 -67.048,-23.842c-45.445,-27.276 -95.495,-72.417 -118.226,-91.459c-6.667,-5.585 -12.812,-15.172 -17.519,-25.777c-3.836,-8.643 -6.852,-17.88 -8.934,-25.072c-0.019,0.006 -0.038,0.011 -0.057,0.017c-29.883,9.444 -96.299,39.126 -131.822,60.958c-17.084,10.509 -47.449,22.678 -80.601,33.822c-45.562,15.315 -96.402,28.891 -123.746,34.097c-82.074,15.627 -133.958,-13.364 -145.233,-44.503c-10.16,-28.056 7.315,-63.868 67.756,-78.718c11.691,-2.872 29.108,-10.207 46.669,-18.751c20.587,-10.017 41.351,-21.723 53.485,-30.36c2.086,-1.484 4.378,-3.406 5.865,-4.694Zm304.467,35.85c-0.083,-0.363 -0.125,-0.555 -0.125,-0.555c-0.267,-1.198 -0.383,-2.424 -0.346,-3.651c-0.052,1.505 0.112,2.904 0.471,4.206Zm1012.67,-158.085c61.824,-0.496 180.898,7.254 284.116,-7.835c68.202,-9.97 129.637,-28.898 158.984,-69.678c31.863,-44.656 34.225,-133.116 12.79,-217.839c-19.732,-77.991 -60.092,-153.005 -117.755,-189.313c-21.782,-13.575 -45.715,-14.943 -72.237,-9.417c-77.885,16.227 -176.33,88.704 -306.587,117.478c-31.664,7.017 -70.938,7.623 -112.981,4.805c-88.889,-5.96 -190.431,-27.239 -256.642,-33.383c-60.36,-5.561 -151.775,11.969 -245.21,37.428c-159.828,43.548 -325.495,110.505 -353.309,127.14c-13.763,8.234 -36.442,23.593 -63.378,45.905c-17.853,14.788 -37.551,32.63 -57.778,53.444c-8.875,9.14 -42.575,35.503 -67.439,61.3c-10.554,10.95 -19.526,21.666 -23.521,30.765c-1.264,2.88 -2.699,5.247 -1.371,7.112c6.36,8.926 14.667,12.715 25.887,12.381c13.938,-0.413 31.442,-6.29 53.975,-16.146c5.277,-2.309 8.706,-0.036 9.54,0.419c4.207,2.295 6.456,5.922 5.435,11.456c-0.172,0.937 -0.562,3.459 -3.354,6.025c-0.198,0.182 -0.823,0.719 -1.921,1.46c-1.132,0.765 -3.589,2.355 -6.96,4.512c-17.815,11.399 -62.128,39.274 -67.359,42.893c-18.674,12.925 -36.693,21.915 -55.157,35.349c-10.087,7.338 -20.312,16.072 -30.883,27.698c-5.161,5.682 -6.854,10.909 -6.705,15.666c0.343,11.023 6.212,20.026 6.235,25.756c0.011,2.674 -1.002,6.807 -4.892,11.155c-4.679,5.232 -16.621,13.759 -31.853,22.79c-27.463,16.285 -65.841,34.845 -86.956,40.212c-50.219,12.766 -63.104,41.104 -39.529,60.468c19.175,15.751 56.136,23.507 106.136,13.571c26.532,-5.272 75.825,-18.882 119.975,-34.139c30.681,-10.603 58.86,-21.927 74.63,-31.821c37.015,-23.243 106.351,-54.987 137.579,-65.187c10.655,-3.48 18.445,-4.178 21.631,-3.613c9.215,1.636 12.634,7.139 13.162,13.474c1.004,4.103 4.677,18.267 10.429,30.899c2.719,5.972 5.694,11.728 9.496,14.851c19.344,15.891 58.846,50.834 98.008,76.815c24.93,16.539 49.251,30.07 67.247,29.539c32.186,-0.964 64.96,-5.168 97.63,-11.215c49.514,-9.166 98.774,-22.586 145.455,-35.586c125.224,-35.703 246.714,-138.166 371.633,-201.783c60.191,-30.653 121.15,-52.598 183.804,-55.811Z"/><path id="Middle-Finger-Upper-Curve" serif:id="Middle Finger Upper Curve" d="M1053.95,2197.33c-4.934,3.647 -11.901,2.601 -15.547,-2.333c-3.647,-4.934 -2.602,-11.9 2.332,-15.547c26.749,-19.406 36.453,-28.666 50.467,-38.972c8.873,-6.524 19.448,-13.388 36.741,-23.482c16.389,-9.433 33.467,-17.696 50.991,-25.162c33.1,-14.101 67.703,-25.066 101.328,-36.678c22.926,-7.917 45.17,-16.599 66.633,-25.289c14.057,-5.692 27.776,-11.32 40.764,-17.843c0.577,-0.322 1.306,-0.115 1.628,0.462c0.322,0.576 0.116,1.306 -0.461,1.628c-10.93,6.795 -22.299,13.303 -34.317,19.146c-22.836,11.102 -47.597,20.084 -72.45,29.953c-23.942,9.507 -48.092,19.474 -71.828,30.334c-25.134,11.499 -49.598,24.247 -72.367,39.446c-11.044,7.279 -19.043,13.009 -25.715,17.947c-19.022,14.079 -26.768,22.62 -58.199,46.39Z"/><path id="Index-Finger-Upper-Curve" serif:id="Index Finger Upper Curve" d="M880.757,2365.53c-4.495,3.675 -11.128,3.009 -14.803,-1.486c-3.675,-4.495 -3.009,-11.128 1.486,-14.803c16.003,-12.875 66.249,-44.545 121.321,-73.205c46.265,-24.077 95.915,-45.985 131.167,-53.609c125.37,-27.117 179.706,-82.967 258.404,-100.832c14.999,-3.406 30.86,-5.69 48.222,-5.693c21.263,-0.003 44.647,3.318 71.435,10.023c0.359,0.073 0.591,0.425 0.517,0.783c-0.074,0.359 -0.425,0.591 -0.784,0.517c-26.856,-4.333 -50.042,-5.075 -70.955,-3.881c-16.732,0.956 -31.985,3.148 -46.372,6.814c-78.529,20.008 -131.807,77.131 -257.01,107.371c-27.772,6.69 -64.594,23.008 -101.31,42.018c-43.353,22.447 -86.304,48.99 -114.658,67.568c-11.979,7.848 -21.352,14.137 -26.66,18.415Z"/><path id="Index-Finger-Bottom-Curve" serif:id="Index Finger Bottom Curve" d="M1180.02,2377.43c35.549,-10.292 75.38,-19.472 146.223,-45.342c141.406,-51.636 174.923,10.316 309.654,-36.537c-0,0 -55.835,20.312 -85.415,33.844c-66.255,30.31 -68.556,44.19 -141.678,47.985c-33.272,1.727 -45.567,-41.169 -137.047,-26.554" style="fill:#d60000;"/><path id="Index-Finger-Bottom-Curve1" serif:id="Index Finger Bottom Curve" d="M1602.94,2303.34c18.286,-5.03 32.654,-8.628 32.654,-8.628c0.004,-0.001 0.008,-0.003 0.012,-0.004c0.462,-0.161 0.967,0.081 1.131,0.542c0.164,0.461 -0.074,0.968 -0.534,1.135c-0,0 -0.004,0.001 -0.012,0.005c-0.532,0.256 -19.756,9.521 -41.328,20.375c-14.231,7.162 -29.243,14.896 -40.414,21.293c-9.158,4.281 -16.998,8.372 -24.103,11.873c-25.228,12.429 -40.114,20.496 -59.45,25.93c-15.256,4.287 -33.341,6.718 -61.794,7.22c-22.197,1.398 -35.499,-16.818 -68.11,-24.655c-14.697,-3.533 -33.546,-4.232 -59.367,0.212c-8.823,2.976 -17.06,5.674 -24.801,8.187c-29.728,9.65 -52.201,16.206 -73.244,22.894c-6.784,1.964 -13.886,-1.949 -15.85,-8.733c-1.964,-6.784 1.949,-13.886 8.733,-15.85c24.601,-6.441 51.294,-11.927 88.672,-23.147c16.814,-5.047 35.719,-11.473 57.669,-19.326c37.599,-13.972 67.807,-20.121 94.336,-22.234c41.244,-3.286 73.414,1.23 110.905,3.595c21.974,1.385 45.582,3.49 74.895,-0.684Zm-274.681,38.704c0.486,0.081 0.968,0.164 1.447,0.248c41.745,7.344 54.371,30.266 78.804,29.381c26.734,-2.306 43.597,-5.683 57.688,-10.654c18.174,-6.411 31.399,-16.017 55.327,-28.489c5.53,-2.882 11.673,-5.777 18.506,-8.881c-5.569,0.623 -11.002,0.986 -16.372,1.088c-16.1,0.307 -31.297,-1.3 -46.735,-2.375c-39.899,-2.779 -81.565,-4.468 -147.239,19.145c-0.477,0.18 -0.952,0.359 -1.426,0.537Z"/></g><g id="Microphone"><g id="Body"><path id="Handle" d="M1735.84,1100.23c-0,-0 251.281,-168.062 410.557,-243.713c65.303,-31.016 234.723,255.189 152.281,300.228c-33.812,18.471 -536.768,-29.752 -562.838,-56.515Z" style="fill:#fff;"/><path d="M1732.91,1095.86c-0,0 117.106,-79.461 242.11,-154.069c57.939,-34.581 117.603,-68.058 168.042,-92.28c12.05,-5.786 27.236,-3.382 43.723,6.441c32.168,19.165 70.919,67.373 99.889,120.272c24.81,45.301 42.369,93.98 43.278,130.431c0.676,27.125 -7.868,47.901 -26.777,58.336c-4.848,2.676 -18.192,4.782 -37.995,5.286c-61.262,1.559 -191.268,-7.325 -307.473,-19.92c-60.381,-6.545 -117.033,-14.119 -158.395,-21.51c-4.728,-0.844 -9.302,-1.487 -13.568,-2.543c-30.324,-7.508 -49.318,-16.911 -53.678,-22.404c-1.09,-1.119 -1.626,-2.664 -1.463,-4.218c0.163,-1.553 1.008,-2.954 2.307,-3.822Zm14.057,3.364c4.09,0.862 9.558,1.619 16.204,2.587c6.918,1.009 14.941,1.673 23.992,2.957c5.042,0.716 10.342,1.771 15.942,2.729c66.524,11.378 172.598,24.355 269.809,32.971c71.573,6.343 138.282,10.658 180.686,10.799c21.333,0.071 35.908,-0.247 40.566,-2.766c13.32,-7.203 17.802,-22.446 17.491,-41.468c-0.561,-34.226 -17.135,-79.909 -40.062,-122.635c-22.716,-42.331 -51.745,-81.781 -78.483,-104.286c-16.658,-14.021 -31.679,-22.089 -43.394,-16.586c-50.292,23.624 -109.761,56.468 -167.643,90.223c-105.85,61.729 -206.301,126.684 -235.108,145.475Z"/><g id="Connector"><path id="Bottom-Edge" serif:id="Bottom Edge" d="M2428.97,1119.36l-55.944,0l-66.401,36.365c-0,-0 -15.035,-153.937 -160.234,-299.21l66.798,-32.855l33.74,-41.992c83.73,106.349 147.944,217.96 182.041,337.692Z" style="fill:#fff;"/><path d="M2428.97,1128.2l-53.206,1.086l-63.744,36.292l-16.575,-8.761c0,0 -1.239,-11.962 -5.669,-32.452c-4.752,-21.975 -12.614,-53.612 -28.216,-90.435c-5.018,-11.842 -10.764,-24.232 -17.542,-36.926c-22.878,-42.846 -56.161,-89.659 -102.281,-135.835l-6.498,-6.501l73.545,-36.462l32.647,-40.955l5.554,-6.913l5.486,6.968c41.406,52.133 78.095,105.567 108.904,160.601c32.338,57.766 58.185,117.306 76.096,179.033l3.207,11.26l-11.708,0Zm-11.815,-17.919c-16.801,-56.603 -40.359,-111.422 -69.564,-164.741c-28.578,-52.175 -62.547,-102.908 -100.782,-152.516l-28.284,34.925l-0.952,1.184c0,-0 -60.067,29.287 -60.067,29.287c43.757,45.066 74.967,90.93 98.162,132.201c7.228,12.862 13.77,25.222 19.574,37.062c18.261,37.249 29.52,69.092 35.508,91.632c1.985,7.471 3.433,13.921 4.481,19.189l53.001,-27.897l2.24,-1.227l46.683,0.901Z"/><g id="Divots"><path id="Bottom" d="M2363.37,1076.76c3.714,13.968 6.931,28.171 9.661,42.604" style="fill:#fff;"/><path d="M2362.99,1076.86c-0.056,-0.211 0.069,-0.427 0.28,-0.483c0.211,-0.056 0.427,0.069 0.483,0.28c1.84,3.391 3.346,6.601 5.275,9.959c1.419,2.471 2.944,4.371 4.282,6.895c0.537,1.012 1.093,1.969 1.372,3.081c0.183,0.729 0.168,1.473 0.162,2.226c-0.028,3.616 -0.687,6.707 -0.943,10.328c-0.245,3.472 -0.285,6.654 -0.48,10.143c0.04,0.214 -0.101,0.421 -0.315,0.461c-0.214,0.041 -0.421,-0.1 -0.462,-0.315c-1.449,-3.16 -2.701,-6.07 -4.289,-9.147c-1.643,-3.185 -3.521,-5.678 -5.061,-8.898c-0.318,-0.666 -0.649,-1.315 -0.796,-2.038c-0.223,-1.102 -0.128,-2.184 -0.094,-3.307c0.088,-2.819 0.616,-5.168 0.726,-7.979c0.151,-3.847 -0.054,-7.37 -0.14,-11.206Z"/><path id="Top" d="M2213.19,823.662c7.856,7.497 15.424,15.13 22.707,22.897" style="fill:#fff;"/><path d="M2212.92,823.948c-0.158,-0.151 -0.163,-0.401 -0.013,-0.558c0.15,-0.158 0.401,-0.164 0.558,-0.013c2.7,1.288 4.913,2.552 7.649,3.723c2.102,0.9 3.782,1.207 5.842,2.18c0.79,0.373 1.552,0.674 2.184,1.274c0.411,0.39 0.652,0.888 0.912,1.39c1.321,2.56 1.766,4.752 2.891,7.391c1.061,2.487 2.124,4.505 3.245,6.954c0.15,0.159 0.142,0.409 -0.017,0.558c-0.159,0.149 -0.41,0.141 -0.559,-0.018c-2.359,-1.269 -4.317,-2.419 -6.749,-3.569c-2.56,-1.211 -4.727,-1.666 -7.236,-3.006c-0.488,-0.261 -0.978,-0.497 -1.356,-0.902c-0.584,-0.625 -0.864,-1.379 -1.231,-2.154c-0.962,-2.035 -1.249,-3.703 -2.178,-5.762c-1.218,-2.699 -2.536,-4.865 -3.942,-7.488Z"/></g></g></g><path id="Head" d="M2246.93,781.67c34.032,-109.605 141.758,-189.772 269.236,-189.772c154.774,-0 280.431,118.174 280.431,263.732c0,145.558 -130.826,279.239 -285.6,279.239c-31.416,-0 -60.067,-3.403 -82.026,-15.507c-28.974,-144.068 -182.041,-337.692 -182.041,-337.692Z" style="fill:#fff;"/><clipPath id="_clip2"><path d="M2246.93,781.67c34.032,-109.605 141.758,-189.772 269.236,-189.772c154.774,-0 280.431,118.174 280.431,263.732c0,145.558 -130.826,279.239 -285.6,279.239c-31.416,-0 -60.067,-3.403 -82.026,-15.507c-28.974,-144.068 -182.041,-337.692 -182.041,-337.692Z"/></clipPath><g clip-path="url(#_clip2)"><g id="Band"><path id="Bottom1" serif:id="Bottom" d="M2566.26,1129.15c17.505,-274.301 -94.987,-424.476 -222.211,-481.683" style="fill:none;stroke:#000;stroke-width:16.67px;"/><path id="Top1" serif:id="Top" d="M2394.09,618.17c142.283,56.054 242.409,247.255 224.456,494.558" style="fill:none;stroke:#000;stroke-width:16.67px;"/></g></g><path d="M2240.54,779.687c5.124,-17.488 11.926,-34.353 20.644,-50.173c20.246,-36.737 49.946,-67.956 85.142,-92.308c47.638,-32.962 106.22,-52.905 169.838,-53.222c78.142,-0.603 149.19,28.294 201.642,75.297c55.181,49.449 89.728,119.038 90.507,196.349c0.621,77.184 -33.69,151.73 -89.317,206.082c-54.097,52.857 -128.185,86.355 -208.001,86.188c-18.835,-0.305 -36.7,-1.743 -52.82,-5.38c-12.767,-2.881 -24.486,-7.058 -34.81,-12.992c-2.99,-1.648 -5.104,-4.529 -5.777,-7.877c-8.074,-44.786 -28.137,-94.651 -51.945,-141.902c-14.248,-28.275 -29.662,-55.697 -44.945,-80.401c-40.851,-66.026 -79.017,-113.53 -79.017,-113.53c-1.368,-1.731 -1.795,-4.025 -1.141,-6.131Zm13.864,0.734c8.685,11.366 41.585,55.055 78.004,111.531c15.95,24.735 32.787,51.773 48.274,79.866c25.456,46.173 47.529,94.91 58.342,139.545c7.379,3.305 15.483,5.602 24.12,7.243c14.664,2.787 30.837,3.507 47.851,3.231c72.749,-0.152 139.605,-31.6 189.198,-79.483c51.074,-49.312 84.118,-116.267 84.685,-186.724c0.717,-71.156 -29.992,-135.811 -79.962,-182.219c-48.575,-45.113 -115.202,-73.032 -188.752,-73.599c-60.438,-0.302 -116.553,17.695 -161.838,48.967c-33.368,23.043 -60.384,53.515 -79.982,88.09c-7.864,13.875 -14.695,28.364 -19.94,43.552Z"/></g><g id="Mic-Holding-Hand" serif:id="Mic Holding Hand"><path id="Hand1" serif:id="Hand" d="M2035.22,1144.2c37.328,2.347 74.976,2.815 113.14,0.582c13.51,-0.79 27.021,-1.429 40.547,-1.876c11.239,-0.372 22.482,-0.644 33.726,-0.856c9.638,-0.181 19.287,-0.424 28.927,-0.415c64.019,0.056 97.492,73.579 79.075,88.335c-52.227,41.846 -166.388,43.186 -170.61,44.736c-41.736,-0.043 -124.805,69.525 -124.805,69.525c-26.596,13.985 -53.656,27.026 -81.611,38.183c-24.024,9.588 -51.735,14.509 -74.998,25.984c-1.065,0.526 -2.121,1.065 -3.167,1.619c-26.914,14.259 -46.449,38.982 -72.822,53.927c-34.665,19.644 -74.256,29.394 -111.111,44.135c-85.341,34.135 -177.259,72.556 -270.236,76.722c-76.037,3.406 -139.839,-36.366 -211.867,-52.613c-80.018,-18.049 -170.961,-12.123 -251.041,-3.235c-114.607,12.719 -311.975,185.558 -459.663,130.216c-101.892,-38.182 -174.308,-465.264 66.302,-460.982c108.615,1.933 231.277,-14.603 328.835,-67.831c58.166,-31.736 99.235,-90.577 154.124,-127.943c60.749,-41.356 130.088,-61.691 197.125,-89.101c47.685,-19.497 89.287,-56.285 139.791,-68.899c41.901,-10.465 88.729,-0.408 131.464,0.439c87.491,1.734 175.053,-4.036 262.321,-9.769c32.317,-2.123 83.077,-12.809 109.901,11.831c34.838,32.001 -5.935,69.595 -27.024,95.631c-65.184,80.476 -162.447,77.943 -258.996,84.606c-34.515,2.382 -68.042,8.163 -102.183,13.393c-11.747,1.799 -23.548,3.197 -35.312,4.877c-5.342,0.763 -20.061,-1.55 -16.057,2.067c53.063,47.94 150.213,30.828 217.201,41.157c12.911,1.99 25.782,4.083 38.621,6.243c26.548,4.467 52.963,9.224 79.314,13.971c39.123,7.05 78.108,14.078 117.187,20.107c35.023,5.402 70.122,10.001 105.465,13.091c9.46,0.827 18.938,1.546 28.437,2.143Z" style="fill:#fff;"/><path d="M1469.81,1052.87c12.356,7.338 26.343,12.193 41.221,15.52c50.279,11.243 110.44,5.371 156.361,12.485l38.723,6.289l79.392,14.045l116.981,20.16l104.956,13.108l28.252,2.13c18.627,1.067 37.331,1.66 56.138,1.679c18.574,0.02 37.247,-0.526 56.044,-1.731l40.748,-2.113l33.843,-1.047l29.098,-0.579c34.88,-0.164 61.696,19.396 77.444,41.299c18.203,25.319 19.162,53.97 7.615,63.328c-17.853,14.469 -42.583,24.583 -68.068,31.53c-49.621,13.527 -102.072,14.611 -104.889,15.662c-1.171,0.43 -2.409,0.65 -3.656,0.648c-13.252,0.062 -30.88,8.399 -48.421,18.558c-35.034,20.29 -69.046,49.134 -69.046,49.134c-0.622,0.521 -1.298,0.974 -2.016,1.351c-13.411,7.15 -26.941,14.059 -40.643,20.614c-13.759,6.582 -27.693,12.801 -41.857,18.548c-16.915,6.864 -35.65,11.461 -53.405,17.589c-7.086,2.446 -14.002,5.155 -20.535,8.424l-2.839,1.474c-4.863,2.612 -9.446,5.617 -13.874,8.839c-19.925,14.496 -36.943,33.06 -58.381,45.372c-10.874,6.246 -22.218,11.559 -33.815,16.36c-25.789,10.678 -52.875,18.713 -78.609,29.182c-51.446,20.928 -105.273,43.379 -160.313,59.08c-37.654,10.742 -75.877,18.308 -114.301,20.255c-24.126,1.223 -47.083,-1.793 -69.543,-6.71c-49.566,-10.853 -96.47,-32.499 -147.139,-42.858c-31.048,-5.959 -63.625,-7.877 -96.501,-7.796c-19.615,0.048 -39.287,1.168 -58.846,2.226c-30.381,1.644 -60.436,3.622 -89.065,6.523c-79.074,7.871 -198.518,92.906 -313.022,124.1c-54.146,14.75 -107.211,18.182 -155.123,-0.415c-26.773,-10.376 -53.021,-43.475 -71.677,-89.902c-27.671,-68.861 -40.866,-166.695 -24.331,-247.565c17.63,-86.219 68.113,-153.502 168.498,-150.93c53.685,1.187 110.874,-2.134 166.703,-12.376c55.279,-10.141 109.223,-27.042 157.055,-52.942c16.991,-9.221 32.466,-20.858 47.271,-33.574c35.67,-30.636 67.6,-67.312 106.237,-93.5c24.774,-16.791 50.929,-30.179 77.777,-41.959c39.694,-17.415 80.91,-31.296 121.301,-47.726c33.108,-13.487 63.253,-35.404 95.54,-51.613c14.631,-7.346 29.685,-13.562 45.571,-17.509c13.38,-3.323 27.232,-4.687 41.297,-4.909c30.809,-0.486 62.68,4.615 92.561,5.245c34.838,0.736 69.689,0.275 104.529,-0.901c52.401,-1.767 104.777,-5.149 157.047,-8.516c19.494,-1.255 45.585,-5.488 69.284,-3.569c18.005,1.459 34.653,6.459 46.93,17.765c17.21,15.85 19.092,32.838 13.682,49.506c-6.786,20.911 -26.857,41.498 -39.963,57.637c-27.262,33.602 -59.866,53.321 -95.657,65.294c-51.941,17.376 -110.723,18.174 -169.268,22.172c-13.627,0.93 -27.099,2.398 -40.515,4.152c-20.346,2.66 -40.566,5.976 -61.008,9.092l-31.773,4.365Zm687.638,211.705c8.281,-0.996 58.314,-2.475 105.966,-14.895c22.828,-5.949 45.14,-14.452 61.228,-27.195c2.354,-1.864 1.858,-5.776 1.183,-10.295c-1.658,-11.104 -8.627,-25.108 -19.788,-36.989c-12.872,-13.703 -31.405,-24.61 -54.486,-24.76l-28.756,0.253l-33.609,0.663l-40.346,1.64c-19.162,1.013 -38.19,1.357 -57.111,1.125c-19.098,-0.233 -38.084,-1.047 -56.987,-2.342l-28.622,-2.156l-105.974,-13.074l-117.394,-20.052l-79.234,-13.898l-38.52,-6.198c-46.244,-7.095 -106.797,-1.207 -157.435,-12.453c-24.291,-5.394 -46.364,-14.655 -63.945,-30.516c-6.989,-6.304 -3.682,-11.076 0.238,-13.941c2.212,-1.616 14.802,-1.275 20.059,-2.03l35.227,-4.89c20.552,-3.164 40.88,-6.525 61.335,-9.23c13.745,-1.818 27.547,-3.339 41.509,-4.313c57.108,-3.983 114.49,-4.571 165.135,-21.6c32.906,-11.065 62.905,-29.197 87.932,-60.146c11.924,-14.76 30.74,-33.213 36.885,-52.313c3.458,-10.747 1.995,-21.625 -9.118,-31.807c-9.589,-8.786 -22.765,-12.125 -36.797,-13.225c-22.857,-1.793 -47.998,2.501 -66.792,3.759c-52.44,3.513 -104.986,7.037 -157.561,8.944c-35.163,1.276 -70.338,1.829 -105.504,1.177c-29.664,-0.55 -61.312,-5.569 -91.895,-5.009c-12.663,0.232 -25.137,1.445 -37.176,4.468c-14.556,3.655 -28.326,9.437 -41.724,16.206c-32.682,16.512 -63.226,38.714 -96.747,52.47c-40.169,16.509 -81.176,30.46 -120.642,47.957c-25.735,11.409 -50.809,24.34 -74.529,40.559c-37.929,25.934 -69.115,62.273 -104.099,92.58c-15.842,13.724 -32.437,26.248 -50.641,36.233c-49.541,27.235 -105.481,45.171 -162.854,56.142c-57.247,10.946 -115.924,14.946 -171.058,14.203c-86.415,-0.863 -128.272,58.64 -142.061,133.11c-14.014,75.689 0.441,166.691 27.652,230.324c15.175,35.488 33.47,62.592 54.296,70.131c41.417,14.969 86.782,9.971 132.87,-3.75c73.89,-21.999 149.31,-66.776 214.85,-97.832c38.267,-18.132 73.538,-31.554 103.461,-35.165c40.846,-4.583 84.469,-9.112 128.084,-8.775c44.314,0.342 88.429,5.527 129.585,16.199c50.444,12.454 96.481,36.763 145.978,48.96c19.632,4.837 39.846,7.524 61.074,6.697c36.193,-1.409 72.246,-8.19 107.811,-17.886c54.217,-14.782 107.299,-36.267 158.047,-56.222c25.815,-10.15 52.952,-17.849 78.823,-28.208c10.612,-4.249 21.008,-8.948 30.976,-14.52c20.761,-11.608 37.196,-29.469 56.525,-43.195c5.384,-3.823 10.963,-7.365 16.863,-10.447l3.496,-1.764c7.53,-3.661 15.481,-6.702 23.634,-9.411c17.425,-5.791 35.808,-10.025 52.421,-16.545c13.783,-5.409 27.348,-11.28 40.748,-17.502c13.135,-6.099 26.113,-12.53 38.975,-19.183c6.091,-4.957 38.583,-30.989 71.852,-49.752c21.386,-12.061 43.223,-20.883 59.274,-20.775l-2.587,0.459Z"/><path id="Index-Finger-Bottom-Curve2" serif:id="Index Finger Bottom Curve" d="M2175.43,1273.39c-72.571,-14.849 -202.14,7.501 -233.077,12.396c-91.302,14.446 -200.06,45.978 -287.916,1.674" style="fill:#fff;"/><path d="M2175.43,1273.39c-5.726,0.711 -10.632,2.351 -16.876,2.882c-2.272,0.193 -4.567,-0.005 -6.909,-0.119c-28.166,-1.37 -61.051,-1.647 -92.524,1.392c-51.093,4.933 -98.195,14.797 -115.231,17.957c-32.945,5.857 -67.954,15.029 -103.811,19.972c-23.823,3.284 -47.936,4.602 -71.608,3.756c-24.43,-0.873 -48.301,-4.27 -71.022,-11.624c-15.057,-4.873 -29.294,-11.556 -43.012,-20.146c27.4,11.121 55.855,14.791 85.08,14.803c19.867,0.009 39.845,-2.012 60.017,-4.689c13.307,-1.766 26.619,-3.906 39.934,-5.958c34.713,-5.351 69.174,-11.097 101.348,-15.546c15.231,-1.955 54.148,-6.882 98.402,-10.473c21.462,-1.742 44.151,-3.489 66.075,-3.692c17.485,-0.162 34.561,-0.177 49.921,2.271c1.445,0.23 2.88,0.425 4.24,0.894c6.238,2.152 10.735,5.27 15.976,8.32Z"/><path id="Middle-Finger-Bottom-Curve" serif:id="Middle Finger Bottom Curve" d="M1875.44,1410.02c-55.231,0 -104.54,-4.49 -158.085,12.02c-79.71,24.579 -162.124,82.105 -248.852,56.53c-15.367,-4.531 -29.409,-12.036 -42.876,-20.583" style="fill:#fff;"/><path d="M1875.44,1409.97c0.026,-0 0.047,0.02 0.047,0.046c-0,0.026 -0.021,0.047 -0.047,0.047c-3.653,2.552 -4.825,4.687 -8.967,6.196c-0.709,0.258 -1.488,0.183 -2.241,0.214c-34.358,1.387 -66.704,-2.49 -99.452,1.718c-14.994,1.927 -30.011,5.377 -45.392,10.437c-47.485,15.879 -95.303,44.718 -145.435,58.227c-10.538,2.84 -21.198,4.981 -31.918,5.903c-24.974,2.148 -49.781,-1.116 -74.53,-10.806c-7.685,-2.889 -14.934,-6.449 -21.944,-10.568c-6.908,-4.06 -13.492,-8.563 -19.959,-13.362c-0.022,-0.014 -0.028,-0.043 -0.015,-0.064c0.014,-0.022 0.043,-0.029 0.065,-0.015c7.032,3.775 14.134,7.247 21.491,10.234c7.248,2.941 14.641,5.328 22.358,7.004c24.141,4.901 46.983,2.608 69.769,-1.915c9.743,-1.934 19.446,-4.226 29.174,-6.849c49.751,-13.412 99.062,-37.456 146.879,-50.973c27.448,-8.184 53.76,-10.832 80.265,-11.764c20.976,-0.737 42.088,-0.797 64.002,-0.382c2.109,0.04 4.325,-0.456 6.345,0.202c4.367,1.423 5.649,3.876 9.505,6.47Z"/></g></g></svg>